<svg width="100%" height="100%" viewBox="0 0 33 35" fill="none" xmlns="http://www.w3.org/2000/svg">
<path d="M30.2285 34.012L24.4459 28.1962H29.0558V28.8469C29.0558 29.5518 28.8267 30.1554 28.3684 30.6575C27.9101 31.1586 27.344 31.4091 26.67 31.4091C25.9691 31.4091 25.369 31.1586 24.8697 30.6575C24.3715 30.1554 24.1224 29.5518 24.1224 28.8469V28.1555H11.1825V28.9689C11.1825 29.6467 10.9463 30.2226 10.474 30.6966C10.0028 31.1716 9.4302 31.4091 8.75624 31.4091C8.08229 31.4091 7.5097 31.1716 7.03847 30.6966C6.56616 30.2226 6.33 29.6467 6.33 28.9689V26.4474C5.84475 25.9051 5.45386 25.3016 5.15732 24.6367C4.86078 23.973 4.71251 23.248 4.71251 22.4617V8.34928L0.466585 4.07895C0.143086 3.75359 -0.0121934 3.36695 0.000746536 2.91904C0.0147648 2.47222 0.183523 2.08612 0.507022 1.76077C0.830521 1.43541 1.21495 1.27273 1.6603 1.27273C2.10457 1.27273 2.48845 1.43541 2.81195 1.76077L32.5334 31.6938C32.8569 32.0191 33.0122 32.4058 32.9993 32.8537C32.9852 33.3005 32.8165 33.6866 32.493 34.012C32.1695 34.3373 31.7921 34.5 31.3607 34.5C30.9294 34.5 30.552 34.3373 30.2285 34.012ZM30.1476 24.6579L19.0678 13.5144H27.3574V8.63397H14.2153L7.74531 2.12679C8.79668 1.58453 10.1381 1.17783 11.7696 0.906699C13.4001 0.635566 15.361 0.5 17.6525 0.5C22.2893 0.5 25.6051 1.00159 27.6001 2.00478C29.595 3.00797 30.5924 4.67544 30.5924 7.00718V22.4617C30.5924 22.8413 30.552 23.2144 30.4711 23.581C30.3902 23.9464 30.2824 24.3054 30.1476 24.6579ZM11.9912 23.2751C12.6652 23.2751 13.2378 23.0376 13.709 22.5626C14.1813 22.0886 14.4175 21.5128 14.4175 20.8349C14.4175 20.1571 14.1813 19.5812 13.709 19.1073C13.2378 18.6322 12.6652 18.3947 11.9912 18.3947C11.3173 18.3947 10.7447 18.6322 10.2735 19.1073C9.80115 19.5812 9.56499 20.1571 9.56499 20.8349C9.56499 21.5128 9.80115 22.0886 10.2735 22.5626C10.7447 23.0376 11.3173 23.2751 11.9912 23.2751ZM7.9475 13.5144H9.84805L7.9475 11.6029V13.5144Z" fill="#202020"/>
</svg>
