<svg width="100%" height="100%" viewBox="0 0 37 38" fill="none" xmlns="http://www.w3.org/2000/svg">
<g clip-path="url(#clip0_161_69)">
<path d="M14.7168 4.42932C15.6257 2.33843 17.7643 0.897583 20.2067 0.897583C23.4527 0.897583 26.1615 3.44258 26.1615 6.67598C26.1615 9.90938 23.4527 12.4546 20.2067 12.4546C19.4613 12.4546 18.7446 12.3204 18.0824 12.0745C18.1738 11.6154 18.2218 11.139 18.2218 10.6492C18.2218 7.98586 16.8016 5.71922 14.7168 4.42932Z" fill="#202020"/>
<path d="M22.2852 19.0703C21.9867 18.6634 21.6045 18.3198 21.1616 18.065C19.5047 17.1109 17.743 16.4016 15.9307 15.937C16.7732 15.1424 17.4302 14.1546 17.8206 13.036C21.9448 12.5305 26.2029 13.3411 29.8974 15.4679C30.5212 15.8271 30.9257 16.4915 30.9257 17.2326V18.0528C29.9222 17.742 28.8555 17.5745 27.7498 17.5745C25.7538 17.5745 23.8852 18.1201 22.2852 19.0703Z" fill="#202020"/>
<path d="M17.0378 27.8968H2.34187C1.0691 27.8968 -0.0400391 26.892 -0.0400391 25.5589V21.2062C-0.0400391 20.465 0.364292 19.8005 0.988274 19.4415C6.95795 16.0047 14.3995 16.0047 20.3692 19.4415C20.6099 19.58 20.818 19.7639 20.9828 19.9802C18.6666 21.8678 17.154 24.7042 17.0378 27.8968Z" fill="#202020"/>
<path d="M10.6797 4.87097C7.43359 4.87097 4.72461 7.41615 4.72461 10.6494C4.72461 13.8828 7.43359 16.4279 10.6797 16.4279C13.9257 16.4279 16.6345 13.8828 16.6345 10.6494C16.6345 7.41615 13.9257 4.87097 10.6797 4.87097Z" fill="#202020"/>
<path fill-rule="evenodd" clip-rule="evenodd" d="M27.7501 21.5444C24.0228 21.5444 21.0012 24.566 21.0012 28.2935C21.0012 32.0208 24.0228 35.0424 27.7501 35.0424C31.4774 35.0424 34.499 32.0208 34.499 28.2935C34.499 24.566 31.4774 21.5444 27.7501 21.5444ZM18.6191 28.2935C18.6191 23.2506 22.7074 19.1625 27.7501 19.1625C32.7928 19.1625 36.8811 23.2506 36.8811 28.2935C36.8811 33.3362 32.7928 37.4243 27.7501 37.4243C22.7074 37.4243 18.6191 33.3362 18.6191 28.2935Z" fill="#202020"/>
<path fill-rule="evenodd" clip-rule="evenodd" d="M27.7496 23.1322C28.4073 23.1322 28.9407 23.6654 28.9407 24.3232V27.7997L30.9738 29.8329C31.4388 30.2981 31.4388 31.0522 30.9738 31.5172C30.5086 31.9823 29.7547 31.9823 29.2895 31.5172L26.9076 29.1352C26.684 28.912 26.5586 28.609 26.5586 28.2932V24.3232C26.5586 23.6654 27.0919 23.1322 27.7496 23.1322Z" fill="#202020"/>
</g>
<defs>
<clipPath id="clip0_161_69">
<rect width="37" height="37" fill="white" transform="translate(0 0.662476)"/>
</clipPath>
</defs>
</svg>
