<svg width="100%" height="100%" viewBox="0 0 34 35" fill="none" xmlns="http://www.w3.org/2000/svg">
<path d="M22.44 15.715L14.535 7.81C14.9317 7.64 15.3351 7.5125 15.7454 7.4275C16.1568 7.3425 16.575 7.3 17 7.3C18.6717 7.3 20.0815 7.87347 21.2296 9.0204C22.3765 10.1685 22.95 11.5783 22.95 13.25C22.95 13.675 22.9075 14.0932 22.8225 14.5046C22.7375 14.9149 22.61 15.3183 22.44 15.715ZM6.545 26.17C7.99 25.065 9.605 24.1935 11.39 23.5554C13.175 22.9185 15.045 22.6 17 22.6C17.51 22.6 17.999 22.621 18.4671 22.6629C18.934 22.706 19.4225 22.77 19.9325 22.855L16.1925 19.115C14.8608 18.945 13.7207 18.3851 12.7721 17.4354C11.8224 16.4868 11.2625 15.3467 11.0925 14.015L6.2475 9.17C5.34083 10.3317 4.63987 11.614 4.1446 13.0171C3.6482 14.419 3.4 15.9133 3.4 17.5C3.4 19.1717 3.67653 20.7442 4.2296 22.2175C4.78153 23.6908 5.55333 25.0083 6.545 26.17ZM27.71 25.83C28.6167 24.6683 29.325 23.386 29.835 21.9829C30.345 20.581 30.6 19.0867 30.6 17.5C30.6 13.7317 29.2757 10.5226 26.6271 7.8729C23.9774 5.2243 20.7683 3.9 17 3.9C15.4133 3.9 13.919 4.155 12.5171 4.665C11.114 5.175 9.83167 5.88333 8.67 6.79L27.71 25.83ZM17 34.5C14.6767 34.5 12.4808 34.0535 10.4125 33.1604C8.34417 32.2685 6.5382 31.0501 4.9946 29.5054C3.44987 27.9618 2.23153 26.1558 1.3396 24.0875C0.446534 22.0192 0 19.8233 0 17.5C0 15.1483 0.446534 12.9457 1.3396 10.8921C2.23153 8.83737 3.44987 7.0382 4.9946 5.4946C6.5382 3.94987 8.34417 2.73097 10.4125 1.8379C12.4808 0.945967 14.6767 0.5 17 0.5C19.3517 0.5 21.5543 0.945967 23.6079 1.8379C25.6626 2.73097 27.4618 3.94987 29.0054 5.4946C30.5501 7.0382 31.7685 8.83737 32.6604 10.8921C33.5535 12.9457 34 15.1483 34 17.5C34 19.8233 33.5535 22.0192 32.6604 24.0875C31.7685 26.1558 30.5501 27.9618 29.0054 29.5054C27.4618 31.0501 25.6626 32.2685 23.6079 33.1604C21.5543 34.0535 19.3517 34.5 17 34.5Z" fill="#202020"/>
</svg>
