<svg width="100%" height="100%" viewBox="0 0 31 38" fill="none" xmlns="http://www.w3.org/2000/svg">
<path d="M11.9231 10.6875V0H3.57692C2.62826 0 1.71846 0.375334 1.04766 1.04343C0.376853 1.71153 0 2.61767 0 3.5625V29.6875C0 30.6323 0.376853 31.5385 1.04766 32.2066C1.71846 32.8747 2.62826 33.25 3.57692 33.25H21.4615C22.7264 33.25 23.9395 32.7496 24.8339 31.8588C25.7283 30.968 26.2308 29.7598 26.2308 28.5V14.25H15.5C14.5513 14.25 13.6415 13.8747 12.9707 13.2066C12.2999 12.5385 11.9231 11.6323 11.9231 10.6875ZM4.76923 20.1875C4.76923 19.8726 4.89485 19.5705 5.11845 19.3478C5.34205 19.1251 5.64532 19 5.96154 19C6.27776 19 6.58103 19.1251 6.80463 19.3478C7.02823 19.5705 7.15385 19.8726 7.15385 20.1875C7.15385 20.5024 7.02823 20.8045 6.80463 21.0272C6.58103 21.2499 6.27776 21.375 5.96154 21.375C5.64532 21.375 5.34205 21.2499 5.11845 21.0272C4.89485 20.8045 4.76923 20.5024 4.76923 20.1875ZM5.96154 26.125C5.64532 26.125 5.34205 25.9999 5.11845 25.7772C4.89485 25.5545 4.76923 25.2524 4.76923 24.9375C4.76923 24.6226 4.89485 24.3205 5.11845 24.0978C5.34205 23.8751 5.64532 23.75 5.96154 23.75C6.27776 23.75 6.58103 23.8751 6.80463 24.0978C7.02823 24.3205 7.15385 24.6226 7.15385 24.9375C7.15385 25.2524 7.02823 25.5545 6.80463 25.7772C6.58103 25.9999 6.27776 26.125 5.96154 26.125ZM10.7308 21.375C10.4145 21.375 10.1113 21.2499 9.88768 21.0272C9.66408 20.8045 9.53846 20.5024 9.53846 20.1875C9.53846 19.8726 9.66408 19.5705 9.88768 19.3478C10.1113 19.1251 10.4145 19 10.7308 19H20.2692C20.5855 19 20.8887 19.1251 21.1123 19.3478C21.3359 19.5705 21.4615 19.8726 21.4615 20.1875C21.4615 20.5024 21.3359 20.8045 21.1123 21.0272C20.8887 21.2499 20.5855 21.375 20.2692 21.375H10.7308ZM9.53846 24.9375C9.53846 24.6226 9.66408 24.3205 9.88768 24.0978C10.1113 23.8751 10.4145 23.75 10.7308 23.75H20.2692C20.5855 23.75 20.8887 23.8751 21.1123 24.0978C21.3359 24.3205 21.4615 24.6226 21.4615 24.9375C21.4615 25.2524 21.3359 25.5545 21.1123 25.7772C20.8887 25.9999 20.5855 26.125 20.2692 26.125H10.7308C10.4145 26.125 10.1113 25.9999 9.88768 25.7772C9.66408 25.5545 9.53846 25.2524 9.53846 24.9375ZM14.3077 10.6875V0.59375L25.6346 11.875H15.5C15.1838 11.875 14.8805 11.7499 14.6569 11.5272C14.4333 11.3045 14.3077 11.0024 14.3077 10.6875ZM31 16.625C31 15.9951 30.7488 15.391 30.3016 14.9456C29.8544 14.5002 29.2478 14.25 28.6154 14.25V28.5C28.6154 30.3897 27.8617 32.2019 26.5201 33.5381C25.1785 34.8743 23.3589 35.625 21.4615 35.625H4.76923C4.76923 36.2549 5.02047 36.859 5.46767 37.3044C5.91487 37.7498 6.52141 38 7.15385 38H21.6046C22.8384 38 24.0602 37.758 25.2001 37.2877C26.34 36.8174 27.3757 36.1282 28.2482 35.2593C29.1206 34.3903 29.8127 33.3588 30.2848 32.2235C30.757 31.0882 31 29.8713 31 28.6425V16.625Z" fill="#202020"/>
</svg>
