<svg width="21" height="22" viewBox="0 0 21 22" fill="none" xmlns="http://www.w3.org/2000/svg">
<path d="M11.2553 0.909611C5.0136 0.510527 -0.15378 5.67765 0.245303 11.9196C0.575026 17.079 4.74237 21.2463 9.90173 21.5763C16.1437 21.9754 21.3111 16.8083 20.912 10.5663C20.582 5.40668 16.4147 1.23933 11.2553 0.909611ZM15.2671 16.381C15.6745 14.9818 15.9175 13.3723 15.9501 11.6411H20.127C20.0354 13.8609 19.1834 15.8864 17.8249 17.4659C17.2014 17.0293 16.3303 16.66 15.2671 16.381ZM3.33238 17.4659C1.97389 15.8864 1.12163 13.8609 1.03027 11.6411H5.20719C5.23954 13.3723 5.48257 14.9818 5.89019 16.381C4.82648 16.6602 3.95533 17.0293 3.33238 17.4659ZM5.88786 6.11168C5.48179 7.5095 5.23928 9.11619 5.20693 10.8445H1.03027C1.12111 8.63532 1.96587 6.61842 3.31297 5.04228C3.94679 5.47164 4.82416 5.83578 5.88786 6.11168ZM10.1802 10.8445H6.00329C6.03771 9.19642 6.2828 7.64046 6.68318 6.29465C7.75983 6.51179 8.95345 6.63551 10.1802 6.65776V10.8445ZM10.1802 11.6411V15.8281C8.95087 15.8504 7.7575 15.9759 6.68473 16.1957C6.28332 14.8488 6.03797 13.2913 6.00329 11.6411H10.1802ZM10.9768 11.6411H15.1537C15.1193 13.2913 14.8737 14.8488 14.4723 16.1957C13.3993 15.9759 12.2059 15.8504 10.9768 15.8281V11.6411ZM10.9768 10.8445V6.6575C12.2036 6.63551 13.3972 6.51154 14.4739 6.29465C14.8742 7.64046 15.1193 9.19642 15.1537 10.8445H10.9768ZM10.9768 5.86115V1.7246C12.2848 1.97306 13.4552 3.42549 14.2226 5.53375C13.2217 5.7289 12.1148 5.83993 10.9768 5.86115ZM10.1802 1.7246V5.86115C9.04223 5.83993 7.9353 5.7289 6.93448 5.53375C7.70185 3.42549 8.87219 1.9728 10.1802 1.7246ZM10.1802 16.6245V20.7613C8.87296 20.5131 7.70341 19.0622 6.93604 16.9566C7.93349 16.7586 9.0399 16.6462 10.1802 16.6245ZM10.9768 20.761V16.6245C12.1169 16.6462 13.2233 16.7586 14.221 16.9566C13.4536 19.062 12.2841 20.5131 10.9768 20.761ZM15.9501 10.8445C15.9178 9.11619 15.6752 7.5095 15.2694 6.11168C16.3331 5.83553 17.2105 5.47164 17.8441 5.04228C19.1912 6.61842 20.0359 8.63532 20.1268 10.8445H15.9501ZM17.2936 4.44805C16.7358 4.80132 15.9558 5.11319 15.0259 5.35155C14.5261 3.93871 13.8478 2.78882 13.0483 2.00955C14.6739 2.44487 16.13 3.29842 17.2936 4.44805ZM6.13114 5.35181C5.2015 5.11319 4.42119 4.80158 3.86371 4.44831C5.02706 3.29842 6.48338 2.44513 8.10896 2.00981C7.3095 2.78882 6.6309 3.93871 6.13114 5.35181ZM3.8839 18.0568C4.42947 17.6983 5.20357 17.3823 6.13373 17.1408C6.63297 18.5506 7.31079 19.6981 8.10896 20.4761C6.49244 20.0431 5.04388 19.1965 3.8839 18.0568ZM15.0233 17.1408C15.9532 17.3823 16.7276 17.6983 17.2731 18.0568C16.1132 19.1968 14.6649 20.0434 13.0481 20.4761C13.8462 19.6981 14.5238 18.5506 15.0233 17.1408Z" fill="#202020"/>
<path d="M11.2553 0.909611C5.0136 0.510527 -0.15378 5.67765 0.245303 11.9196C0.575026 17.079 4.74237 21.2463 9.90173 21.5763C16.1437 21.9754 21.3111 16.8083 20.912 10.5663C20.582 5.40668 16.4147 1.23933 11.2553 0.909611ZM15.2671 16.381C15.6745 14.9818 15.9175 13.3723 15.9501 11.6411H20.127C20.0354 13.8609 19.1834 15.8864 17.8249 17.4659C17.2014 17.0293 16.3303 16.66 15.2671 16.381ZM3.33238 17.4659C1.97389 15.8864 1.12163 13.8609 1.03027 11.6411H5.20719C5.23954 13.3723 5.48257 14.9818 5.89019 16.381C4.82648 16.6602 3.95533 17.0293 3.33238 17.4659ZM5.88786 6.11168C5.48179 7.5095 5.23928 9.11619 5.20693 10.8445H1.03027C1.12111 8.63532 1.96587 6.61842 3.31297 5.04228C3.94679 5.47164 4.82416 5.83578 5.88786 6.11168ZM10.1802 10.8445H6.00329C6.03771 9.19642 6.2828 7.64046 6.68318 6.29465C7.75983 6.51179 8.95345 6.63551 10.1802 6.65776V10.8445ZM10.1802 11.6411V15.8281C8.95087 15.8504 7.7575 15.9759 6.68473 16.1957C6.28332 14.8488 6.03797 13.2913 6.00329 11.6411H10.1802ZM10.9768 11.6411H15.1537C15.1193 13.2913 14.8737 14.8488 14.4723 16.1957C13.3993 15.9759 12.2059 15.8504 10.9768 15.8281V11.6411ZM10.9768 10.8445V6.6575C12.2036 6.63551 13.3972 6.51154 14.4739 6.29465C14.8742 7.64046 15.1193 9.19642 15.1537 10.8445H10.9768ZM10.9768 5.86115V1.7246C12.2848 1.97306 13.4552 3.42549 14.2226 5.53375C13.2217 5.7289 12.1148 5.83993 10.9768 5.86115ZM10.1802 1.7246V5.86115C9.04223 5.83993 7.9353 5.7289 6.93448 5.53375C7.70185 3.42549 8.87219 1.9728 10.1802 1.7246ZM10.1802 16.6245V20.7613C8.87296 20.5131 7.70341 19.0622 6.93604 16.9566C7.93349 16.7586 9.0399 16.6462 10.1802 16.6245ZM10.9768 20.761V16.6245C12.1169 16.6462 13.2233 16.7586 14.221 16.9566C13.4536 19.062 12.2841 20.5131 10.9768 20.761ZM15.9501 10.8445C15.9178 9.11619 15.6752 7.5095 15.2694 6.11168C16.3331 5.83553 17.2105 5.47164 17.8441 5.04228C19.1912 6.61842 20.0359 8.63532 20.1268 10.8445H15.9501ZM17.2936 4.44805C16.7358 4.80132 15.9558 5.11319 15.0259 5.35155C14.5261 3.93871 13.8478 2.78882 13.0483 2.00955C14.6739 2.44487 16.13 3.29842 17.2936 4.44805ZM6.13114 5.35181C5.2015 5.11319 4.42119 4.80158 3.86371 4.44831C5.02706 3.29842 6.48338 2.44513 8.10896 2.00981C7.3095 2.78882 6.6309 3.93871 6.13114 5.35181ZM3.8839 18.0568C4.42947 17.6983 5.20357 17.3823 6.13373 17.1408C6.63297 18.5506 7.31079 19.6981 8.10896 20.4761C6.49244 20.0431 5.04388 19.1965 3.8839 18.0568ZM15.0233 17.1408C15.9532 17.3823 16.7276 17.6983 17.2731 18.0568C16.1132 19.1968 14.6649 20.0434 13.0481 20.4761C13.8462 19.6981 14.5238 18.5506 15.0233 17.1408Z" stroke="#202020"/>
</svg>
