<svg width="13" height="14" viewBox="0 0 13 14" fill="none" xmlns="http://www.w3.org/2000/svg">
<path d="M10.2005 0H2.48071C1.13976 0 0.0488281 1.21271 0.0488281 2.70368V5.55977V11.2875C0.0488281 12.7784 1.13976 13.9911 2.48071 13.9911H10.2007C11.5417 13.9911 12.6324 12.7784 12.6324 11.2875V5.55949V2.7034C12.6321 1.21242 11.5414 0 10.2005 0ZM10.898 1.61233L11.1762 1.6112V1.91911V3.98271L9.05042 3.99033L9.04305 1.61911L10.898 1.61233ZM4.54455 5.55949C4.94762 4.93945 5.60146 4.53276 6.3406 4.53276C7.07973 4.53276 7.73358 4.93945 8.13614 5.55949C8.39834 5.96419 8.55546 6.45921 8.55546 6.99543C8.55546 8.3532 7.56098 9.45782 6.34034 9.45782C5.11895 9.45782 4.12548 8.3532 4.12548 6.99543C4.12574 6.45921 4.28235 5.96419 4.54455 5.55949ZM11.4061 11.2872C11.4061 12.0269 10.8653 12.6277 10.2005 12.6277H2.48071C1.81569 12.6277 1.27479 12.0269 1.27479 11.2872V5.55949H3.15309C2.99089 6.00314 2.89977 6.48771 2.89977 6.99543C2.89977 9.10448 4.44302 10.8215 6.3406 10.8215C8.23793 10.8215 9.78117 9.10448 9.78117 6.99543C9.78117 6.48771 9.68954 6.00314 9.52735 5.55949H11.4061V11.2872Z" fill="#F5F5F5"/>
</svg>
