<svg width="100%" height="100%" viewBox="0 0 44 29" fill="none" xmlns="http://www.w3.org/2000/svg">
<path d="M35.6783 24.8571V29H10.4261V24.8571C10.4261 24.8571 10.4261 16.5714 23.0522 16.5714C35.6783 16.5714 35.6783 24.8571 35.6783 24.8571ZM29.3652 6.21429C29.3652 4.98522 28.995 3.78375 28.3013 2.76182C27.6076 1.73988 26.6216 0.943382 25.4681 0.473037C24.3145 0.00269251 23.0452 -0.120371 21.8206 0.119409C20.596 0.359188 19.4711 0.951041 18.5882 1.82012C17.7053 2.68921 17.104 3.79649 16.8604 5.00194C16.6168 6.20739 16.7419 7.45688 17.2197 8.59239C17.6975 9.7279 18.5067 10.6984 19.5448 11.3813C20.583 12.0641 21.8036 12.4286 23.0522 12.4286C24.7265 12.4286 26.3322 11.7739 27.5162 10.6085C28.7001 9.44305 29.3652 7.86242 29.3652 6.21429ZM33.8991 16.6957C35.0494 17.7403 35.9768 19.0001 36.6272 20.4013C37.2775 21.8026 37.6378 23.3173 37.687 24.8571V29H44V24.8571C44 24.8571 44 17.7107 33.8991 16.6957ZM31.3739 2.42151e-06C30.7381 0.000376963 30.1063 0.0982154 29.501 0.290002C30.7322 2.02787 31.3923 4.0956 31.3923 6.21429C31.3923 8.33298 30.7322 10.4007 29.501 12.1386C30.1063 12.3304 30.7381 12.4282 31.3739 12.4286C33.0482 12.4286 34.654 11.7739 35.8379 10.6085C37.0218 9.44305 37.687 7.86242 37.687 6.21429C37.687 4.56616 37.0218 2.98553 35.8379 1.82012C34.654 0.65472 33.0482 2.42151e-06 31.3739 2.42151e-06ZM13.3416 10.2682L15.7826 13.1889L5.78696 23.0281L0 16.8139L2.44104 14.411L5.78696 17.6839L13.3416 10.2682Z" fill="#202020"/>
<path d="M35.6783 24.8571V29H10.4261V24.8571C10.4261 24.8571 10.4261 16.5714 23.0522 16.5714C35.6783 16.5714 35.6783 24.8571 35.6783 24.8571ZM29.3652 6.21429C29.3652 4.98522 28.995 3.78375 28.3013 2.76182C27.6076 1.73988 26.6216 0.943382 25.4681 0.473037C24.3145 0.00269251 23.0452 -0.120371 21.8206 0.119409C20.596 0.359188 19.4711 0.951041 18.5882 1.82012C17.7053 2.68921 17.104 3.79649 16.8604 5.00194C16.6168 6.20739 16.7419 7.45688 17.2197 8.59239C17.6975 9.7279 18.5067 10.6984 19.5448 11.3813C20.583 12.0641 21.8036 12.4286 23.0522 12.4286C24.7265 12.4286 26.3322 11.7739 27.5162 10.6085C28.7001 9.44305 29.3652 7.86242 29.3652 6.21429ZM33.8991 16.6957C35.0494 17.7403 35.9768 19.0001 36.6272 20.4013C37.2775 21.8026 37.6378 23.3173 37.687 24.8571V29H44V24.8571C44 24.8571 44 17.7107 33.8991 16.6957ZM31.3739 2.42151e-06C30.7381 0.000376963 30.1063 0.0982154 29.501 0.290002C30.7322 2.02787 31.3923 4.0956 31.3923 6.21429C31.3923 8.33298 30.7322 10.4007 29.501 12.1386C30.1063 12.3304 30.7381 12.4282 31.3739 12.4286C33.0482 12.4286 34.654 11.7739 35.8379 10.6085C37.0218 9.44305 37.687 7.86242 37.687 6.21429C37.687 4.56616 37.0218 2.98553 35.8379 1.82012C34.654 0.65472 33.0482 2.42151e-06 31.3739 2.42151e-06ZM13.3416 10.2682L15.7826 13.1889L5.78696 23.0281L0 16.8139L2.44104 14.411L5.78696 17.6839L13.3416 10.2682Z" fill="#202020"/>
</svg>
