<?xml version="1.0" encoding="utf-8"?>
<!-- Generator: Adobe Illustrator 26.0.3, SVG Export Plug-In . SVG Version: 6.00 Build 0)  -->
<svg version="1.1" id="Слой_1" xmlns="http://www.w3.org/2000/svg" xmlns:xlink="http://www.w3.org/1999/xlink" x="0px" y="0px"
	 viewBox="0 0 111.2 50" style="enable-background:new 0 0 111.2 50;" xml:space="preserve">
<style type="text/css">
	.st0{fill:#202020;}
</style>
<path class="st0" d="M58.9,8.4l-1.2,2.3c-0.5-0.4-1-0.7-1.6-0.9c-0.6-0.3-1.2-0.4-1.8-0.4c-1.4-0.1-2.8,0.5-3.8,1.6
	c-1,1.2-1.5,2.8-1.4,4.3c-0.1,1.5,0.4,3,1.3,4.1c0.9,1,2.3,1.6,3.7,1.5c0.9,0,1.8-0.3,2.5-0.8V17h-2.2v-2.4h5.1v7.2
	c-0.8,0.6-1.7,1.1-2.6,1.3c-1,0.3-2.1,0.5-3.2,0.5c-2.1,0.1-4.1-0.7-5.5-2.3c-1.4-1.7-2.1-3.8-2-6c-0.1-2.2,0.7-4.4,2.2-6.1
	c1.6-1.6,3.8-2.5,6-2.3C56.1,6.8,57.7,7.4,58.9,8.4z M62.5,7.1l2.8-0.7v13.3c0,1.5,0.4,2.3,1.3,2.6c-0.4,0.8-1.3,1.3-2.2,1.2
	c-1.2,0-1.9-0.9-1.9-2.6V7.1z M67.9,17.3c-0.1-1.6,0.5-3.2,1.5-4.4c2.3-2.2,6-2.2,8.3,0c1,1.2,1.6,2.8,1.5,4.5
	c0.1,1.6-0.5,3.2-1.5,4.5c-2.3,2.2-6,2.2-8.3,0C68.3,20.6,67.8,19,67.9,17.3z M70.8,17.3c0,2.6,0.9,3.9,2.8,3.9c0.8,0,1.5-0.4,2-1
	c0.6-0.9,0.8-1.9,0.8-2.9c0-2.6-0.9-3.9-2.8-3.9c-0.8,0-1.5,0.4-2,1C71,15.3,70.7,16.3,70.8,17.3z M83.4,22.6l-0.6,0.9h-1.5V7.1
	L84,6.4v5.5c0.7-0.4,1.6-0.7,2.4-0.7c1.6-0.1,3.1,0.6,4.2,1.7c1.1,1.1,1.6,2.6,1.6,4.2c0.1,1.7-0.5,3.4-1.6,4.7
	c-1.1,1.2-2.7,1.8-4.3,1.7C85.2,23.6,84.2,23.2,83.4,22.6z M84,14.3v6.2c0.4,0.5,1,0.8,1.6,0.7c1,0.1,2.1-0.2,2.8-1
	c0.6-0.9,0.9-1.9,0.8-3c0-2.4-1.1-3.6-3.4-3.6C85.2,13.6,84.5,13.8,84,14.3z M101.2,22.1c-0.3,0.5-0.8,0.8-1.3,1
	c-0.6,0.3-1.3,0.4-1.9,0.4c-1.1,0.1-2.1-0.3-3-1c-0.8-0.7-1.2-1.7-1.1-2.7c-0.1-1.3,0.5-2.5,1.5-3.2c1.3-0.9,2.8-1.3,4.4-1.2
	c0.4,0,0.8,0.1,1.2,0.2c0-1.4-0.9-2.1-2.6-2.1c-0.9,0-1.8,0.1-2.6,0.5l-0.6-2.1c1.1-0.5,2.2-0.7,3.4-0.7c1.4-0.1,2.9,0.3,4,1.2
	c0.8,0.8,1.3,2.4,1.3,4.7v2.5c0,1.6,0.3,2.6,0.9,3c-0.2,0.3-0.4,0.6-0.8,0.7c-0.3,0.1-0.7,0.1-1,0.1c-0.4,0-0.8-0.2-1.1-0.4
	C101.5,22.8,101.3,22.5,101.2,22.1L101.2,22.1z M100.9,17.7c-0.3-0.1-0.7-0.1-1.1-0.1c-2.2,0-3.3,0.7-3.3,2.1c0,1.1,0.6,1.6,1.8,1.6
	c1.2,0.2,2.3-0.7,2.5-1.9c0-0.2,0-0.4,0-0.6V17.7z M107.1,7.1l2.8-0.7v13.3c0,1.5,0.4,2.3,1.3,2.6c-0.4,0.8-1.3,1.3-2.2,1.2
	c-1.2,0-1.9-0.9-1.9-2.6L107.1,7.1z M58.9,32.4l-1.2,2.3c-0.5-0.4-1-0.7-1.6-0.9c-0.6-0.3-1.2-0.4-1.8-0.5c-1.4-0.1-2.8,0.5-3.8,1.6
	c-1,1.2-1.5,2.8-1.4,4.3c-0.1,1.5,0.4,3,1.3,4.1c0.9,1,2.3,1.6,3.7,1.5c0.9,0,1.8-0.3,2.5-0.8V41h-2.2v-2.5h5.1v7.2
	c-0.8,0.6-1.7,1.1-2.6,1.3c-1,0.3-2.1,0.5-3.2,0.5c-2.1,0.1-4.1-0.7-5.5-2.3c-1.4-1.7-2.1-3.8-2-6c-0.1-2.2,0.7-4.4,2.2-6.1
	c1.6-1.6,3.8-2.5,6-2.3C56.1,30.8,57.7,31.4,58.9,32.4z M69.6,47.3v-1c-0.5,0.4-1,0.7-1.6,0.8c-0.6,0.2-1.2,0.3-1.9,0.3
	c-2.7,0-4.1-1.5-4.1-4.4v-7.7h2.8v7.5c0,1.5,0.7,2.3,2,2.3c0.6,0,1.2-0.2,1.8-0.5c0.5-0.3,0.8-0.6,1.1-1.1v-8.1h2.8v11.8H69.6z
	 M77.5,30.9c0.9,0,1.6,0.7,1.6,1.6c0,0.4-0.2,0.8-0.5,1.1c-0.3,0.3-0.7,0.5-1.1,0.5c-0.4,0-0.8-0.2-1.1-0.5
	c-0.3-0.3-0.5-0.7-0.5-1.1c0-0.4,0.2-0.8,0.5-1.1C76.7,31.1,77.1,30.9,77.5,30.9z M76.1,47.3v-9.6h-1.5v-2.3h4.3v11.8L76.1,47.3z
	 M89.7,47.3v-0.7c-0.3,0.3-0.7,0.5-1.2,0.7c-0.5,0.2-1.1,0.3-1.7,0.3C85.4,47.6,84,47,83,45.9c-1-1.2-1.5-2.8-1.4-4.4
	c-0.1-1.7,0.5-3.3,1.6-4.5c1-1.2,2.5-1.8,4.1-1.8c0.8,0,1.7,0.2,2.4,0.5v-4.7l2.8-0.7v16.9L89.7,47.3z M89.7,38.3
	c-0.5-0.4-1.2-0.7-1.8-0.7c-1-0.1-1.9,0.3-2.6,1c-0.6,0.8-1,1.8-0.9,2.9c0,2.4,1.2,3.7,3.6,3.7c0.4,0,0.7-0.1,1-0.3
	c0.3-0.1,0.6-0.3,0.8-0.5L89.7,38.3z M105.8,42.3h-8.4c0,0.8,0.4,1.6,1,2.2c0.7,0.5,1.5,0.8,2.4,0.8c1.1,0.1,2.1-0.3,2.9-1l1.1,2.1
	c-1.3,0.9-2.8,1.3-4.3,1.2c-1.6,0.1-3.2-0.5-4.3-1.6c-1.1-1.2-1.7-2.8-1.6-4.4c-0.1-1.7,0.6-3.4,1.8-4.6c1.1-1.1,2.6-1.7,4.1-1.7
	c1.5-0.1,3,0.5,4.1,1.5c1,1,1.6,2.4,1.6,3.9C106,41.2,105.9,41.7,105.8,42.3L105.8,42.3z M97.4,40.2h5.8c0-1.4-1.1-2.6-2.6-2.6
	c-0.1,0-0.2,0-0.3,0C98.8,37.5,97.8,38.4,97.4,40.2L97.4,40.2z"/>
<path class="st0" d="M28.2,10.7c-0.1,0.1-0.3,0.1-0.4,0.2c-2.5,1.6-4.1,4.2-4.5,7.2c-0.3,2-0.5,4.1-0.7,6.2c0,0.2,0,0.4,0,0.7
	c0.6-0.1,1.2,0.1,1.5,0.6c0.5,0.5,0.6,1.4,0,1.9c0,0-0.1,0.1-0.2,0.1c-0.1,0.1-0.3,0.2-0.5,0.3c-0.1,0.1-0.2,0.2-0.1,0.3
	c0.1,0.4,0.2,0.8,0.3,1.1l0.1,0.2c1.3-0.3,2.2-1.4,2.3-2.7c0.1-1.2-0.4-2.4-1.5-3c-0.2-0.1-0.4-0.4-0.3-0.6c0.2-1.3,0.3-2.6,0.5-4
	c0.2-1.8,0.8-3.6,1.9-5.1c0,0,0,0,0.1-0.1s0,0.1,0,0.2v17.5c0,0.2-0.1,0.3-0.3,0.3h-5.8h-0.4v1.4h8.1V10.7
	C28.3,10.7,28.2,10.7,28.2,10.7z"/>
<path class="st0" d="M21.6,31.4c-0.1-0.6-0.1-1.1-0.2-1.7c-0.3-1.7-1.1-3.3-2.4-4.4c-0.2-0.1-0.3-0.1-0.4,0c-1.2,1-2,2.4-2.3,4
	c-0.1,0.7-0.2,1.4-0.3,2.1h-1.7c0-0.5,0-0.9,0.1-1.4c0.2-1.7,0.9-3.3,2-4.6c0.2-0.3,0.4-0.6,0.5-0.9c0.6-1.8,0.9-3.7,0.8-5.5
	c-0.1-2.6-0.2-5.2-0.3-7.8c-0.1-1.2,0.3-2.3,1-3.2c0.1-0.1,0.2-0.2,0.4-0.4c0.2,0.2,0.3,0.4,0.5,0.6c0.6,0.8,0.9,1.7,0.8,2.7
	c-0.1,2.3-0.1,4.7-0.2,7c-0.2,1.8,0,3.7,0.4,5.5c0.2,0.6,0.4,1.2,0.6,1.8c0,0.1,0.1,0.2,0.2,0.2c1.4,1.6,2.1,3.6,2.2,5.7v0.3
	L21.6,31.4z"/>
<path class="st0" d="M16.2,33.5h1.1v-1.4h-6.2c-0.2,0-0.3,0-0.3-0.3c0-1.4,0-2.8,0-4.2c0-4.4,0-8.8,0-13.1c0-0.1,0-0.1,0-0.2
	l0.1,0.1c1,1.4,1.7,3,1.9,4.7c0.2,1.4,0.3,2.8,0.5,4.3c0.1,0.3-0.1,0.6-0.3,0.7c-1.5,0.9-1.9,2.8-1,4.2c0.2,0.3,0.4,0.5,0.6,0.8
	c0.4,0.3,0.8,0.6,1.3,0.7c0-0.2,0.1-0.4,0.1-0.5l0.1-0.5c0.1-0.5,0.1-0.5-0.3-0.8l-0.1-0.1c-0.6-0.4-0.8-1.3-0.4-1.9
	c0.1-0.2,0.2-0.3,0.4-0.4c0.4-0.3,0.9-0.5,1.4-0.4c0-0.3-0.1-0.6-0.1-0.9c-0.2-1.6-0.4-3.2-0.5-4.7c-0.1-1.1-0.3-2.2-0.7-3.2
	c-0.8-2.1-2.2-3.9-4.1-5.2c-0.1-0.1-0.3-0.1-0.4-0.2v22.8L16.2,33.5L16.2,33.5z"/>
<path class="st0" d="M17.1,30.8c0.5,0.2,0.9,0.8,0.9,1.4c0,1.1,0,3,0,3.7c0,0.1,0.1,0.3,0.2,0.3l0.5,0.4c0.1,0,0.1,0,0.2,0l0.5-0.4
	c0.1-0.1,0.2-0.2,0.2-0.3c0-1.2,0-2.5,0-3.7c0-0.6,0.3-1.1,0.8-1.3c0.1-0.1,0.3-0.1,0.4-0.2s0.1-0.1,0.1-0.2c0-0.4-0.1-0.8-0.2-1.1
	c0-0.1-0.1-0.2-0.2-0.2c0,0,0,0,0,0c-0.6,0.2-1.2,0.6-1.6,1c-0.1,0-0.1,0-0.2,0c-0.5-0.4-1-0.8-1.6-1c-0.1,0-0.2,0-0.2,0.1
	c0,0,0,0,0,0c0,0.2-0.1,0.4-0.1,0.6C16.7,30.3,16.8,30.6,17.1,30.8z"/>
<path class="st0" d="M21.1,34.1c-0.2,0.7-0.6,1.4-1.1,2c-0.2,0.3-0.5,0.6-0.8,0.8l-0.4,0.3c-0.1,0-0.1,0-0.2,0l0,0
	c-0.7-0.4-1.3-1-1.7-1.7c-0.3-0.4-0.5-0.9-0.6-1.4h-1.7c0.6,2,2,3.8,3.9,4.8c0.1,0.1,0.3,0.1,0.5,0c1.7-1,3-2.5,3.7-4.3
	c0.1-0.2,0.1-0.4,0.2-0.5L21.1,34.1z"/>
<g>
	<path class="st0" d="M18.8,50c-0.3,0-0.6-0.1-0.8-0.3c-0.2-0.1-0.5-0.3-0.7-0.5c-0.5-0.4-1.2-1-2-1.7c-2.2-2-4.2-4.1-6.1-6.3
		c-6-7-9.1-14.5-9.1-21.6C0,14.4,1.9,9.5,5.5,5.7l0,0c1.7-1.8,3.8-3.2,6.1-4.2c4.6-2,9.8-2,14.4,0c2.3,1,4.4,2.4,6.1,4.2
		c3.6,3.7,5.5,8.7,5.5,13.8c0,8.9-4.9,16.6-9,21.6c-1.9,2.2-3.9,4.4-6.1,6.3c-0.8,0.7-1.5,1.3-2.1,1.7l-0.9,0.6
		C19.3,49.9,19.1,50,18.8,50z M19.1,48.1C19.1,48.1,19.1,48.1,19.1,48.1C19.1,48.1,19.1,48.1,19.1,48.1z M6.9,7.1
		C3.7,10.5,2,14.9,2,19.5c0,8.4,4.7,15.7,8.7,20.3c1.8,2.2,3.8,4.2,5.9,6.1c0.8,0.7,1.5,1.3,2,1.6c0.1,0.1,0.2,0.2,0.3,0.3l0.4-0.3
		c0.5-0.4,1.2-1,2-1.6c2.1-1.9,4.1-3.9,5.9-6.1c3.9-4.7,8.6-12,8.6-20.3c0-4.7-1.8-9.1-5-12.5c-1.6-1.6-3.4-2.9-5.4-3.8
		c-4.1-1.8-8.8-1.8-12.8,0C10.3,4.2,8.5,5.5,6.9,7.1z"/>
</g>
</svg>
