<svg id="Слой_1" data-name="Слой 1" xmlns="http://www.w3.org/2000/svg" viewBox="0 0 111.17 49.94"><defs><style>.cls-1{fill:#fafafa;}</style></defs><path class="cls-1" d="M58.93,8.43l-1.21,2.31a5.52,5.52,0,0,0-1.56-.9,4.78,4.78,0,0,0-1.82-.45A4.68,4.68,0,0,0,50.57,11a6.46,6.46,0,0,0-1.38,4.33,6,6,0,0,0,1.35,4.12A4.66,4.66,0,0,0,54.23,21a3.73,3.73,0,0,0,2.52-.84V17H54.51V14.54h5.11v7.24A7.42,7.42,0,0,1,57,23.09a11.23,11.23,0,0,1-3.21.47,7,7,0,0,1-5.51-2.28,8.68,8.68,0,0,1-2-6A8.46,8.46,0,0,1,48.49,9.2a7.84,7.84,0,0,1,6-2.34A6.72,6.72,0,0,1,58.93,8.43Zm3.55-1.37,2.76-.66V19.68c0,1.46.43,2.33,1.3,2.61a2.26,2.26,0,0,1-2.19,1.21c-1.25,0-1.87-.87-1.87-2.6ZM67.9,17.34a6.32,6.32,0,0,1,1.55-4.41,6,6,0,0,1,8.31,0,6.36,6.36,0,0,1,1.49,4.46,6.4,6.4,0,0,1-1.52,4.49,6,6,0,0,1-8.34,0A6.46,6.46,0,0,1,67.9,17.34Zm2.87,0c0,2.61.93,3.91,2.81,3.91a2.42,2.42,0,0,0,2-1,4.8,4.8,0,0,0,.76-2.9c0-2.56-.93-3.85-2.8-3.85a2.42,2.42,0,0,0-2,1A4.61,4.61,0,0,0,70.77,17.34Zm12.65,5.29-.62.87H81.25V7.06L84,6.4v5.53a4.52,4.52,0,0,1,2.4-.68,5.53,5.53,0,0,1,4.19,1.68,5.76,5.76,0,0,1,1.59,4.19,6.67,6.67,0,0,1-1.6,4.7,5.64,5.64,0,0,1-4.33,1.72A4.58,4.58,0,0,1,83.42,22.63ZM84,14.28v6.16a2,2,0,0,0,1.64.72,3.58,3.58,0,0,0,2.82-.95,4.47,4.47,0,0,0,.84-3c0-2.4-1.14-3.6-3.44-3.6A2.37,2.37,0,0,0,84,14.28Zm17.19,7.82a2.74,2.74,0,0,1-1.32,1,4.94,4.94,0,0,1-1.94.39,4.46,4.46,0,0,1-3-.95,3.42,3.42,0,0,1-1.09-2.71,3.8,3.8,0,0,1,1.53-3.21,7.15,7.15,0,0,1,4.38-1.16,5,5,0,0,1,1.15.16c0-1.39-.88-2.08-2.64-2.08a5.79,5.79,0,0,0-2.6.52l-.59-2.13a7.74,7.74,0,0,1,3.39-.69,5.42,5.42,0,0,1,4,1.24c.84.81,1.26,2.37,1.26,4.65v2.53c0,1.58.32,2.56,1,3a1.43,1.43,0,0,1-.76.73,3.06,3.06,0,0,1-1,.14,1.54,1.54,0,0,1-1.07-.44,2.18,2.18,0,0,1-.64-1Zm-.27-4.38a5.4,5.4,0,0,0-1.06-.14c-2.18,0-3.26.71-3.26,2.14,0,1.06.61,1.59,1.84,1.59a2.2,2.2,0,0,0,2.48-1.88,2.08,2.08,0,0,0,0-.61Zm6.21-10.66,2.76-.66V19.68c0,1.46.43,2.33,1.3,2.61A2.24,2.24,0,0,1,109,23.5c-1.25,0-1.88-.87-1.88-2.6ZM58.93,32.43l-1.21,2.31a5.52,5.52,0,0,0-1.56-.9,4.78,4.78,0,0,0-1.82-.45A4.68,4.68,0,0,0,50.57,35a6.46,6.46,0,0,0-1.38,4.33,6,6,0,0,0,1.35,4.12A4.66,4.66,0,0,0,54.23,45a3.73,3.73,0,0,0,2.52-.84V41H54.51V38.54h5.11v7.24A7.42,7.42,0,0,1,57,47.09a11.23,11.23,0,0,1-3.21.47,7,7,0,0,1-5.51-2.28,8.68,8.68,0,0,1-2-6,8.46,8.46,0,0,1,2.21-6.08,7.84,7.84,0,0,1,6-2.34A6.72,6.72,0,0,1,58.93,32.43ZM69.62,47.29v-1a5.19,5.19,0,0,1-1.61.85,5.85,5.85,0,0,1-1.89.35C63.38,47.49,62,46,62,43.12V35.46h2.76v7.47c0,1.52.68,2.27,2,2.27a3.36,3.36,0,0,0,1.75-.48,2.49,2.49,0,0,0,1.07-1.13V35.46h2.76V47.29Zm7.9-16.36a1.65,1.65,0,0,1,1.6,1.6,1.54,1.54,0,0,1-.48,1.14,1.52,1.52,0,0,1-1.12.46,1.57,1.57,0,0,1-1.6-1.6,1.52,1.52,0,0,1,.46-1.12A1.58,1.58,0,0,1,77.52,30.93Zm-1.43,16.4v-9.6H74.58V35.46h4.31V47.28Zm13.62,0v-.72a2.94,2.94,0,0,1-1.16.67,5.43,5.43,0,0,1-1.69.27A5,5,0,0,1,83,45.93a6.31,6.31,0,0,1-1.41-4.37A6.44,6.44,0,0,1,83.21,37a5.34,5.34,0,0,1,4.08-1.77,5.46,5.46,0,0,1,2.45.55V31.06l2.76-.66V47.28Zm0-9a3,3,0,0,0-1.84-.71,3.18,3.18,0,0,0-2.55,1,4.19,4.19,0,0,0-.89,2.89c0,2.45,1.18,3.67,3.55,3.68a2.61,2.61,0,0,0,1-.26,1.79,1.79,0,0,0,.76-.48Zm16.08,3.93H97.35a3,3,0,0,0,1,2.19,3.49,3.49,0,0,0,2.4.78,3.89,3.89,0,0,0,2.87-1l1.07,2.11a6.79,6.79,0,0,1-4.35,1.18A5.77,5.77,0,0,1,96,45.93a6,6,0,0,1-1.56-4.42,6.16,6.16,0,0,1,1.75-4.58,5.66,5.66,0,0,1,4.14-1.73,5.56,5.56,0,0,1,4.13,1.54,5.22,5.22,0,0,1,1.56,3.9,7.73,7.73,0,0,1-.23,1.58Zm-8.35-2.08h5.81a2.59,2.59,0,0,0-2.57-2.61l-.3,0c-1.57,0-2.55.82-2.94,2.55Z" transform="translate(-0.02 -0.03)"/><path class="cls-1" d="M28.16,10.73c-.14.08-.28.15-.41.24a10.2,10.2,0,0,0-4.51,7.15c-.33,2-.49,4.1-.72,6.16a3,3,0,0,1-.05.66,1.72,1.72,0,0,1,1.54.58,1.35,1.35,0,0,1,0,1.92,1,1,0,0,1-.15.14,2.94,2.94,0,0,1-.47.31c-.15.08-.18.16-.13.34.12.37.2.75.3,1.13l.06.19A3.21,3.21,0,0,0,26,26.86a3.08,3.08,0,0,0-1.47-3,.54.54,0,0,1-.31-.6c.17-1.32.33-2.65.46-4a10.47,10.47,0,0,1,1.92-5.1l.09-.07c.09-.07,0,.14,0,.19v17.5c0,.21-.07.26-.27.26H20.24v1.44H28.3V10.69Z" transform="translate(-0.02 -0.03)"/><path class="cls-1" d="M21.56,31.38c-.07-.57-.12-1.12-.21-1.66a7.72,7.72,0,0,0-2.42-4.42c-.16-.15-.26-.08-.38,0a6.87,6.87,0,0,0-2.29,4c-.14.67-.2,1.36-.3,2.07H14.31a6.56,6.56,0,0,1,.1-1.4,9.15,9.15,0,0,1,2-4.58,4.11,4.11,0,0,0,.54-.93,13.67,13.67,0,0,0,.76-5.53c-.08-2.6-.18-5.21-.27-7.82a4.73,4.73,0,0,1,1-3.24c.1-.13.21-.23.35-.38a6.57,6.57,0,0,1,.48.57,4.27,4.27,0,0,1,.82,2.7c-.06,2.33-.13,4.67-.22,7a18.15,18.15,0,0,0,.38,5.5c.17.62.43,1.22.65,1.83a.78.78,0,0,0,.16.24,9,9,0,0,1,2.18,5.73v.31Z" transform="translate(-0.02 -0.03)"/><path class="cls-1" d="M16.24,33.5h1.07V32.06H11.15c-.24,0-.32-.05-.32-.3V14.12l.09.09a10.16,10.16,0,0,1,1.89,4.72c.16,1.42.31,2.84.49,4.26a.62.62,0,0,1-.31.7,3.09,3.09,0,0,0-1,4.25,3.34,3.34,0,0,0,.65.75,3.61,3.61,0,0,0,1.29.7,2.47,2.47,0,0,1,.11-.53l.12-.49c.15-.53.15-.53-.28-.83l-.11-.07a1.39,1.39,0,0,1,0-2.31,1.72,1.72,0,0,1,1.35-.43,7.15,7.15,0,0,0-.09-.85c-.17-1.58-.36-3.16-.52-4.74a12.89,12.89,0,0,0-.68-3.25,10.21,10.21,0,0,0-4.13-5.16c-.13-.08-.27-.14-.43-.22v22.8h7Z" transform="translate(-0.02 -0.03)"/><path class="cls-1" d="M17.14,30.8A1.41,1.41,0,0,1,18,32.16v3.7a.4.4,0,0,0,.18.33l.53.36a.17.17,0,0,0,.21,0l.55-.43a.38.38,0,0,0,.16-.31v-3.7a1.4,1.4,0,0,1,.81-1.29c.13-.07.28-.11.42-.18s.13-.11.12-.16a7.75,7.75,0,0,0-.16-1.15.19.19,0,0,0-.22-.15h0a6.33,6.33,0,0,0-1.65,1,.17.17,0,0,1-.21,0,5.92,5.92,0,0,0-1.65-1,.17.17,0,0,0-.22.1s0,0,0,0a3.83,3.83,0,0,1-.1.59A.84.84,0,0,0,17.14,30.8Z" transform="translate(-0.02 -0.03)"/><path class="cls-1" d="M21.15,34.09a5.84,5.84,0,0,1-1.06,2,5,5,0,0,1-.82.78l-.4.31a.15.15,0,0,1-.18,0h0A5.18,5.18,0,0,1,17,35.48a6.45,6.45,0,0,1-.63-1.39H14.65a8.58,8.58,0,0,0,3.89,4.84.43.43,0,0,0,.46,0,8.4,8.4,0,0,0,3.73-4.32c.07-.18.12-.36.18-.54Z" transform="translate(-0.02 -0.03)"/><path class="cls-1" d="M18.8,50a1.27,1.27,0,0,1-.81-.28c-.21-.15-.46-.34-.71-.55-.47-.37-1.18-1-2-1.68a58.91,58.91,0,0,1-6.11-6.33C3.18,34.13,0,26.66,0,19.55A19.88,19.88,0,0,1,5.49,5.74h0a18.55,18.55,0,0,1,6.1-4.22A18.35,18.35,0,0,1,32.07,5.74a19.86,19.86,0,0,1,5.51,13.81c0,8.88-4.92,16.63-9,21.57a60.57,60.57,0,0,1-6.1,6.31c-.77.68-1.5,1.28-2.05,1.71l-.86.62A1.34,1.34,0,0,1,18.8,50Zm.32-1.87,0,0ZM6.91,7.08A18,18,0,0,0,2,19.55c0,8.39,4.71,15.69,8.66,20.33A57.84,57.84,0,0,0,16.55,46c.8.7,1.48,1.26,1.95,1.63.11.1.22.18.32.26l.36-.28c.53-.41,1.22-1,2-1.63A57.52,57.52,0,0,0,27,39.87c3.92-4.7,8.59-12,8.59-20.32a17.93,17.93,0,0,0-5-12.47,16.42,16.42,0,0,0-5.44-3.77,16.21,16.21,0,0,0-12.85,0A16.4,16.4,0,0,0,6.91,7.08Z" transform="translate(-0.02 -0.03)"/></svg>