<svg width="17" height="14" viewBox="0 0 17 14" fill="none" xmlns="http://www.w3.org/2000/svg">
<path d="M15.3 3.59995L8.5 7.84995L1.7 3.59995V1.89995L8.5 6.14995L15.3 1.89995M15.3 0.199951H1.7C0.7565 0.199951 0 0.956451 0 1.89995V12.1C0 12.5508 0.179107 12.9832 0.497918 13.302C0.81673 13.6208 1.24913 13.8 1.7 13.8H15.3C15.7509 13.8 16.1833 13.6208 16.5021 13.302C16.8209 12.9832 17 12.5508 17 12.1V1.89995C17 1.44908 16.8209 1.01668 16.5021 0.69787C16.1833 0.379058 15.7509 0.199951 15.3 0.199951Z" fill="#F5F5F5"/>
</svg>
