<svg width="22" height="16" viewBox="0 0 22 16" fill="none" xmlns="http://www.w3.org/2000/svg">
<path d="M1.08567 0.888051C1.05039 0.887533 1.01511 0.88883 0.979825 0.891683C0.944544 0.894796 0.909523 0.899466 0.874761 0.905951C0.839998 0.912437 0.805496 0.920479 0.771512 0.930596C0.737528 0.940454 0.704322 0.951868 0.671376 0.965099C0.638689 0.978329 0.606521 0.992857 0.575132 1.00946C0.543742 1.0258 0.51339 1.04344 0.483557 1.0629C0.453983 1.08236 0.425447 1.10311 0.397949 1.12516C0.37045 1.14747 0.343989 1.17108 0.318826 1.19572C0.293662 1.22063 0.269796 1.24657 0.247226 1.27381C0.224657 1.30105 0.203384 1.32906 0.183669 1.35838C0.163693 1.38769 0.145534 1.41778 0.128672 1.44892C0.11181 1.48005 0.0965039 1.51195 0.0830141 1.54438C0.0692649 1.57707 0.0573316 1.61027 0.0469548 1.644C0.0365781 1.67798 0.0277578 1.71197 0.0210129 1.74673C0.0140086 1.78123 0.00882021 1.81625 0.00518838 1.85153C0.00181588 1.88655 0 1.92184 0 1.95712C0 1.9924 0.00181588 2.02768 0.00518838 2.06296C0.00882021 2.09798 0.0140086 2.133 0.0210129 2.16751C0.0277578 2.20227 0.0365781 2.23651 0.0469548 2.27024C0.0573316 2.30396 0.0692649 2.33717 0.0830141 2.36985C0.0965039 2.40254 0.11181 2.43419 0.128672 2.46532C0.145534 2.49645 0.163693 2.52654 0.183669 2.55586C0.203384 2.58517 0.224657 2.61345 0.247226 2.64069C0.269796 2.66767 0.293662 2.69387 0.318826 2.71851C0.343989 2.74342 0.37045 2.76676 0.397949 2.78907C0.425447 2.81138 0.453983 2.83214 0.483557 2.85133C0.51339 2.87079 0.543742 2.88869 0.575132 2.90503C0.606521 2.92138 0.638689 2.93616 0.671376 2.94939C0.704322 2.96236 0.737528 2.97404 0.771512 2.9839C0.805496 2.99375 0.839998 3.0018 0.874761 3.00828C0.909523 3.01477 0.944544 3.01944 0.979825 3.02255C1.01511 3.02566 1.05039 3.0267 1.08567 3.02618H20.3548C20.3903 3.0267 20.4256 3.02566 20.4609 3.02255C20.4962 3.01944 20.5312 3.01477 20.566 3.00828C20.6007 3.0018 20.635 2.99375 20.6689 2.9839C20.7029 2.97404 20.7364 2.96236 20.7693 2.94939C20.802 2.93616 20.8342 2.92138 20.8656 2.90503C20.897 2.88869 20.9273 2.87079 20.9569 2.85133C20.9865 2.83214 21.015 2.81138 21.0425 2.78907C21.0703 2.76676 21.0965 2.74342 21.1216 2.71851C21.1468 2.69387 21.1709 2.66767 21.1935 2.64069C21.2161 2.61345 21.2373 2.58517 21.257 2.55586C21.2768 2.52654 21.2952 2.49645 21.312 2.46532C21.3289 2.43419 21.344 2.40254 21.3577 2.36985C21.3714 2.33717 21.3834 2.30396 21.3938 2.27024C21.4041 2.23651 21.4127 2.20227 21.4197 2.16751C21.4267 2.133 21.4319 2.09798 21.4353 2.06296C21.4389 2.02768 21.4407 1.9924 21.4407 1.95712C21.4407 1.92184 21.4389 1.88655 21.4353 1.85153C21.4319 1.81625 21.4267 1.78123 21.4197 1.74673C21.4127 1.71197 21.4041 1.67798 21.3938 1.644C21.3834 1.61027 21.3714 1.57707 21.3577 1.54438C21.344 1.51195 21.3289 1.48005 21.312 1.44892C21.2952 1.41778 21.2768 1.38769 21.257 1.35838C21.2373 1.32906 21.2161 1.30105 21.1935 1.27381C21.1709 1.24657 21.1468 1.22063 21.1216 1.19572C21.0965 1.17108 21.0703 1.14747 21.0425 1.12516C21.015 1.10311 20.9865 1.08236 20.9569 1.0629C20.9273 1.04344 20.897 1.0258 20.8656 1.00946C20.8342 0.992857 20.802 0.978329 20.7693 0.965099C20.7364 0.951868 20.7029 0.940454 20.6689 0.930596C20.635 0.920479 20.6007 0.912437 20.566 0.905951C20.5312 0.899466 20.4962 0.894796 20.4609 0.891683C20.4256 0.88883 20.3903 0.887533 20.3548 0.888051H1.08567ZM1.08567 7.3027C1.05039 7.30218 1.01511 7.30348 0.979825 7.30659C0.944544 7.30945 0.909523 7.31438 0.874761 7.32086C0.839998 7.32709 0.805496 7.33539 0.771512 7.34525C0.737528 7.3551 0.704322 7.36652 0.671376 7.37975C0.638689 7.39298 0.606521 7.40777 0.575132 7.42411C0.543742 7.44045 0.51339 7.45835 0.483557 7.47781C0.453983 7.49701 0.425447 7.51776 0.397949 7.54007C0.37045 7.56212 0.344249 7.58573 0.318826 7.61063C0.293662 7.63528 0.269796 7.66122 0.247226 7.68846C0.224657 7.7157 0.203384 7.74397 0.183669 7.77329C0.163693 7.80234 0.145534 7.8327 0.128672 7.86383C0.11181 7.8947 0.0965039 7.9266 0.0830141 7.95929C0.0692649 7.99198 0.0573316 8.02492 0.0469548 8.05891C0.0365781 8.09263 0.0280173 8.12688 0.0210129 8.16138C0.0140086 8.19614 0.00882021 8.2309 0.00518838 8.26618C0.00181588 8.30147 0 8.33649 0 8.37203C0 8.40731 0.00181588 8.44259 0.00518838 8.47761C0.00882021 8.51289 0.0140086 8.54765 0.0210129 8.58242C0.0280173 8.61692 0.0365781 8.65116 0.0469548 8.68489C0.0573316 8.71887 0.0692649 8.75208 0.0830141 8.7845C0.0965039 8.81719 0.11181 8.8491 0.128672 8.88023C0.145534 8.9111 0.163693 8.94145 0.183669 8.97077C0.203384 8.99982 0.224657 9.0281 0.247226 9.05534C0.269796 9.08257 0.293662 9.10852 0.318826 9.13342C0.344249 9.15807 0.37045 9.18167 0.397949 9.20372C0.425447 9.22603 0.453983 9.24679 0.483816 9.26624C0.51339 9.28544 0.543742 9.30334 0.575132 9.31968C0.606521 9.33603 0.638689 9.35081 0.671376 9.36404C0.704322 9.37728 0.737528 9.38869 0.771512 9.39855C0.805496 9.4084 0.839998 9.41671 0.874761 9.42319C0.909523 9.42968 0.944544 9.43435 0.979825 9.4372C1.01511 9.44031 1.05039 9.44161 1.08567 9.44109H20.3548C20.3903 9.44161 20.4256 9.44031 20.4609 9.4372C20.4962 9.43435 20.5312 9.42968 20.566 9.42319C20.6007 9.41671 20.635 9.4084 20.6689 9.39855C20.7029 9.38869 20.7364 9.37728 20.7693 9.36404C20.802 9.35081 20.8342 9.33603 20.8656 9.31968C20.897 9.30334 20.9273 9.28544 20.9569 9.26624C20.9865 9.24679 21.015 9.22603 21.0425 9.20372C21.0703 9.18167 21.0965 9.15807 21.1216 9.13342C21.1468 9.10852 21.1707 9.08257 21.1935 9.05534C21.2161 9.0281 21.2373 8.99982 21.257 8.97077C21.2768 8.94145 21.2952 8.9111 21.312 8.88023C21.3289 8.8491 21.344 8.81719 21.3577 8.7845C21.3714 8.75208 21.3834 8.71887 21.3938 8.68489C21.4041 8.65116 21.4127 8.61692 21.4197 8.58242C21.4267 8.54765 21.4319 8.51289 21.4353 8.47761C21.4389 8.44259 21.4407 8.40731 21.4407 8.37203C21.4407 8.33649 21.4389 8.30147 21.4353 8.26618C21.4319 8.2309 21.4267 8.19614 21.4197 8.16138C21.4127 8.12688 21.4041 8.09263 21.3938 8.05891C21.3834 8.02492 21.3714 7.99198 21.3577 7.95929C21.344 7.9266 21.3289 7.8947 21.312 7.86383C21.2952 7.8327 21.2768 7.80234 21.257 7.77329C21.2373 7.74397 21.2161 7.7157 21.1935 7.68846C21.1707 7.66122 21.1468 7.63528 21.1216 7.61063C21.0965 7.58573 21.0703 7.56212 21.0425 7.54007C21.015 7.51776 20.9865 7.49701 20.9569 7.47781C20.9273 7.45835 20.897 7.44045 20.8656 7.42411C20.8342 7.40777 20.802 7.39298 20.7693 7.37975C20.7364 7.36652 20.7029 7.3551 20.6689 7.34525C20.635 7.33539 20.6007 7.32709 20.566 7.32086C20.5312 7.31438 20.4962 7.30945 20.4609 7.30659C20.4256 7.30348 20.3903 7.30218 20.3548 7.3027H1.08567ZM1.08567 13.7176C1.05039 13.7171 1.01511 13.7184 0.979825 13.7212C0.944544 13.7244 0.909523 13.729 0.874761 13.7355C0.839998 13.742 0.805496 13.75 0.771512 13.7599C0.737528 13.7698 0.704322 13.7814 0.671376 13.7947C0.638689 13.8076 0.606521 13.8224 0.575132 13.8388C0.543742 13.8551 0.513131 13.873 0.483557 13.8925C0.453983 13.9119 0.425447 13.9327 0.397949 13.9547C0.37045 13.977 0.343989 14.0004 0.318826 14.0253C0.293662 14.0502 0.269796 14.0761 0.247226 14.1034C0.224657 14.1303 0.203384 14.1586 0.183669 14.1879C0.163693 14.2173 0.145534 14.2473 0.128672 14.2785C0.11181 14.3096 0.0965039 14.3415 0.0830141 14.3739C0.0692649 14.4066 0.0573316 14.4398 0.0469548 14.4736C0.0365781 14.5073 0.0277578 14.5415 0.0210129 14.5763C0.0140086 14.6108 0.00882021 14.6458 0.00518838 14.6808C0.00181588 14.7161 0 14.7514 0 14.7867C0 14.822 0.00181588 14.8572 0.00518838 14.8925C0.00882021 14.9275 0.0140086 14.9626 0.0210129 14.9971C0.0277578 15.0318 0.0365781 15.0661 0.0469548 15.0998C0.0573316 15.1335 0.0692649 15.1667 0.0830141 15.1994C0.0965039 15.2318 0.11181 15.2637 0.128672 15.2949C0.145534 15.326 0.163693 15.3561 0.183669 15.3854C0.203384 15.4147 0.224657 15.443 0.247226 15.47C0.269796 15.4972 0.293662 15.5232 0.318826 15.5481C0.343989 15.573 0.37045 15.5963 0.397949 15.6186C0.425447 15.6407 0.453983 15.6614 0.483557 15.6809C0.51339 15.7004 0.543742 15.7183 0.575132 15.7346C0.606521 15.7509 0.638689 15.7657 0.671376 15.7787C0.704322 15.7919 0.737528 15.8036 0.771512 15.8135C0.805496 15.8233 0.839998 15.8314 0.874761 15.8378C0.909523 15.8443 0.944544 15.849 0.979825 15.8521C1.01511 15.855 1.05039 15.8563 1.08567 15.8557H20.3548C20.3903 15.8563 20.4256 15.855 20.4609 15.8521C20.4962 15.849 20.5312 15.8443 20.566 15.8378C20.6007 15.8314 20.635 15.8233 20.6689 15.8135C20.7029 15.8036 20.7364 15.7919 20.7693 15.7787C20.802 15.7657 20.8342 15.7509 20.8656 15.7346C20.897 15.7183 20.9273 15.7004 20.9569 15.6809C20.9865 15.6614 21.015 15.6407 21.0425 15.6186C21.0703 15.5963 21.0965 15.573 21.1216 15.5481C21.1468 15.5232 21.1709 15.4972 21.1935 15.47C21.2161 15.443 21.2373 15.4147 21.257 15.3854C21.2768 15.3561 21.2952 15.326 21.312 15.2949C21.3289 15.2637 21.344 15.2318 21.3577 15.1994C21.3714 15.1667 21.3834 15.1335 21.3938 15.0998C21.4041 15.0661 21.4127 15.0318 21.4197 14.9971C21.4267 14.9626 21.4319 14.9275 21.4355 14.8925C21.4389 14.8572 21.4407 14.822 21.4407 14.7867C21.4407 14.7514 21.4389 14.7161 21.4355 14.6808C21.4319 14.6458 21.4267 14.6108 21.4197 14.5763C21.4127 14.5415 21.4041 14.5073 21.3938 14.4736C21.3834 14.4398 21.3714 14.4066 21.3577 14.3739C21.344 14.3415 21.3289 14.3096 21.312 14.2785C21.2952 14.2473 21.2768 14.2173 21.257 14.1879C21.2373 14.1586 21.2161 14.1303 21.1935 14.1034C21.1709 14.0761 21.1468 14.0502 21.1216 14.0253C21.0965 14.0004 21.0703 13.977 21.0425 13.9547C21.015 13.9327 20.9865 13.9119 20.9569 13.8925C20.9273 13.873 20.897 13.8551 20.8656 13.8388C20.8342 13.8224 20.802 13.8076 20.7693 13.7947C20.7364 13.7814 20.7029 13.7698 20.6689 13.7599C20.635 13.75 20.6007 13.742 20.566 13.7355C20.5312 13.729 20.4962 13.7244 20.4609 13.7212C20.4256 13.7184 20.3903 13.7171 20.3548 13.7176H1.08567Z" fill="#202020"/>
</svg>
