<svg width="100%" height="100%" viewBox="0 0 36 36" fill="none" xmlns="http://www.w3.org/2000/svg">
<path d="M2.40001 6.00266C2.40001 4.41065 3.03215 2.88385 4.15737 1.75814C5.28259 0.632421 6.80871 0 8.40001 0H30C31.5913 0 33.1174 0.632421 34.2426 1.75814C35.3679 2.88385 36 4.41065 36 6.00266V27.6122C36 29.2042 35.3679 30.731 34.2426 31.8568C33.1174 32.9825 31.5913 33.6149 30 33.6149H23.796C23.6169 33.1088 23.3266 32.6493 22.9464 32.2703L18.1464 27.4682C19.1672 25.3322 19.4586 22.9199 18.9756 20.6022C18.4926 18.2845 17.2621 16.1896 15.4732 14.6397C13.6843 13.0898 11.436 12.1706 9.07407 12.0234C6.71214 11.8763 4.36729 12.5094 2.40001 13.8253V6.00266ZM26.4 8.40372V25.2112C26.4 25.5296 26.5264 25.8349 26.7515 26.0601C26.9765 26.2852 27.2817 26.4117 27.6 26.4117C27.9183 26.4117 28.2235 26.2852 28.4485 26.0601C28.6736 25.8349 28.8 25.5296 28.8 25.2112V8.40372C28.8 8.08532 28.6736 7.77996 28.4485 7.55482C28.2235 7.32967 27.9183 7.20319 27.6 7.20319C27.2817 7.20319 26.9765 7.32967 26.7515 7.55482C26.5264 7.77996 26.4 8.08532 26.4 8.40372ZM16.8 22.8101C16.8 24.6973 16.176 26.4405 15.1272 27.8427L21.2472 33.9654C21.4658 34.1919 21.5867 34.4951 21.584 34.8099C21.5813 35.1247 21.4551 35.4258 21.2326 35.6484C21.0101 35.871 20.7091 35.9972 20.3945 36C20.0798 36.0027 19.7767 35.8817 19.5504 35.663L13.4304 29.5403C11.9154 30.6737 10.0623 31.2623 8.17127 31.2107C6.28022 31.1592 4.46192 30.4705 3.01083 29.2563C1.55973 28.0421 0.560806 26.3734 0.175807 24.5204C-0.209193 22.6674 0.0422803 20.7387 0.889503 19.0465C1.73673 17.3543 3.13009 15.9978 4.84396 15.1966C6.55783 14.3954 8.49185 14.1964 10.3328 14.6319C12.1738 15.0674 13.814 16.1118 14.9877 17.5961C16.1614 19.0803 16.8 20.9175 16.8 22.8101ZM14.4 22.8101C14.4 21.2181 13.7679 19.6913 12.6426 18.5656C11.5174 17.4399 9.99131 16.8074 8.40001 16.8074C6.80871 16.8074 5.28259 17.4399 4.15737 18.5656C3.03215 19.6913 2.40001 21.2181 2.40001 22.8101C2.40001 24.4021 3.03215 25.9289 4.15737 27.0546C5.28259 28.1803 6.80871 28.8128 8.40001 28.8128C9.99131 28.8128 11.5174 28.1803 12.6426 27.0546C13.7679 25.9289 14.4 24.4021 14.4 22.8101Z" fill="#202020"/>
</svg>
