<svg width="100%" height="100%" viewBox="0 0 36 36" fill="none" xmlns="http://www.w3.org/2000/svg">
<path d="M19.26 16.56L16.65 13.995C16.29 13.665 15.87 13.5 15.39 13.5C14.91 13.5 14.49 13.68 14.13 14.04C13.8 14.37 13.635 14.79 13.635 15.3C13.635 15.81 13.8 16.23 14.13 16.56L18 20.43C18.33 20.76 18.75 20.925 19.26 20.925C19.77 20.925 20.19 20.76 20.52 20.43L28.17 12.78C28.53 12.42 28.71 11.9922 28.71 11.4966C28.71 11.0022 28.53 10.575 28.17 10.215C27.81 9.855 27.3828 9.675 26.8884 9.675C26.3928 9.675 25.965 9.855 25.605 10.215L19.26 16.56ZM10.8 28.8C9.81 28.8 8.9628 28.4478 8.2584 27.7434C7.5528 27.0378 7.2 26.19 7.2 25.2V3.6C7.2 2.61 7.5528 1.7622 8.2584 1.0566C8.9628 0.3522 9.81 0 10.8 0H32.4C33.39 0 34.2378 0.3522 34.9434 1.0566C35.6478 1.7622 36 2.61 36 3.6V25.2C36 26.19 35.6478 27.0378 34.9434 27.7434C34.2378 28.4478 33.39 28.8 32.4 28.8H10.8ZM3.6 36C2.61 36 1.7628 35.6478 1.0584 34.9434C0.3528 34.2378 0 33.39 0 32.4V9C0 8.49 0.1728 8.0622 0.5184 7.7166C0.8628 7.3722 1.29 7.2 1.8 7.2C2.31 7.2 2.7378 7.3722 3.0834 7.7166C3.4278 8.0622 3.6 8.49 3.6 9V32.4H27C27.51 32.4 27.9372 32.5728 28.2816 32.9184C28.6272 33.2628 28.8 33.69 28.8 34.2C28.8 34.71 28.6272 35.1372 28.2816 35.4816C27.9372 35.8272 27.51 36 27 36H3.6Z" fill="#202020"/>
</svg>
