<svg id="Capa_1" data-name="Capa 1" xmlns="http://www.w3.org/2000/svg" viewBox="0 0 643 643"><defs><style>.cls-1{fill:#afacac;}</style></defs><path class="cls-1" d="M321.48,403.2A75.58,75.58,0,0,0,389.1,293.86L292.66,397.5A75.27,75.27,0,0,0,321.48,403.2Z" transform="translate(0 10)"/><path class="cls-1" d="M245.9,327.62a75.3,75.3,0,0,0,7.48,32.82l95.93-103.08A75.56,75.56,0,0,0,245.9,327.62Z" transform="translate(0 10)"/><path class="cls-1" d="M493.89,181.25l-19,20.43h22.95v50.44H427.94l-20.84,22.4A100.78,100.78,0,0,1,274.64,416.87L217,478.76H472.62A50.37,50.37,0,0,0,523,428.39V226.89h0A50.37,50.37,0,0,0,493.89,181.25Z" transform="translate(0 10)"/><path class="cls-1" d="M220.72,327.66a100.79,100.79,0,0,1,146.67-89.73l57.12-61.39H397.1V151.3h0a25.18,25.18,0,0,0-25.2-25.14H271.13A25.18,25.18,0,0,0,246,151.33v25.21H170.37A50.38,50.38,0,0,0,120,226.89V428.41a50.37,50.37,0,0,0,28.11,45.17l87.2-93.71A100.2,100.2,0,0,1,220.72,327.66Z" transform="translate(0 10)"/><path class="cls-1" d="M548.84,84.17C423.28-41.38,219.72-41.38,94.17,84.17s-125.56,329.12,0,454.67,329.12,125.55,454.68,0,125.55-329.12,0-454.67ZM30,311.5C30,150.77,160.76,20,321.5,20A290.37,290.37,0,0,1,515.65,94.27L118.9,520.83A290.57,290.57,0,0,1,30,311.5ZM321.5,603a290,290,0,0,1-177.66-60.57L539,117.67a290.27,290.27,0,0,1,74,193.86C613,472.24,482.23,603,321.5,603Z" transform="translate(0 10)"/></svg>