<svg id="Capa_1" data-name="Capa 1" xmlns="http://www.w3.org/2000/svg" viewBox="0 0 403 352.62"><defs><style>.cls-1{fill:#020202;}</style></defs><path class="cls-1" d="M417.17,368a75.58,75.58,0,1,1-75.58-75.58A75.58,75.58,0,0,1,417.17,368ZM543.1,267.27v201.5a50.37,50.37,0,0,1-50.37,50.37H190.48a50.37,50.37,0,0,1-50.38-50.35h0V267.27a50.37,50.37,0,0,1,50.38-50.35h75.58V191.71a25.18,25.18,0,0,1,25.18-25.18H392a25.17,25.17,0,0,1,25.19,25.15v25.24h75.58a50.36,50.36,0,0,1,50.31,50.35ZM442.36,368A100.76,100.76,0,1,0,341.6,468.78h0A100.88,100.88,0,0,0,442.36,368Zm75.58-125.94H442.36V292.5h75.58Z" transform="translate(-140.1 -166.53)"/></svg>