<svg width="1440" height="129" viewBox="0 0 1440 129" fill="none" xmlns="http://www.w3.org/2000/svg">
<mask id="mask0_137_60" style="mask-type:luminance" maskUnits="userSpaceOnUse" x="0" y="2" width="320" height="127">
<path d="M0 2.5755L319.766 2.5755V128.69H0L0 2.5755Z" fill="white"/>
</mask>
<g mask="url(#mask0_137_60)">
<path d="M206.584 252.689C232.567 278.188 274.447 278.045 300.244 252.251C326.04 226.455 326.185 184.579 300.682 158.599C312.971 146.085 319.735 129.563 319.735 112C319.735 94.4353 312.971 77.9135 300.682 65.3993C326.185 39.4189 326.04 -2.45723 300.243 -28.2511C287.676 -40.8188 270.964 -47.7409 253.188 -47.7409C235.625 -47.7409 219.101 -40.9778 206.584 -28.6906C180.752 -54.0434 139.208 -54.0434 113.375 -28.6906C100.86 -40.9778 84.3361 -47.7409 66.771 -47.7409C48.9967 -47.7409 32.2849 -40.8188 19.7162 -28.2511C6.74354 -15.2796 0.256408 1.75958 0.256408 18.7987C0.256408 35.6433 6.59916 52.4829 19.2766 65.3993C6.98849 77.9135 0.225586 94.4353 0.225586 112C0.225586 129.563 6.98849 146.085 19.2766 158.599C6.59916 171.514 0.256408 188.355 0.256408 205.199C0.256408 222.239 6.74354 239.278 19.7162 252.251C45.5138 278.045 87.3939 278.188 113.375 252.689C139.208 278.042 180.752 278.042 206.584 252.689ZM21.0772 158.599C46.4109 133.759 87.1311 133.759 112.463 158.599C100.19 170.639 83.9905 177.265 66.771 177.265C49.5515 177.265 33.3523 170.639 21.0772 158.599ZM21.0772 65.3993C33.3523 53.3587 49.5515 46.7335 66.771 46.7335C83.9905 46.7335 100.19 53.3587 112.465 65.3993C100.19 77.4383 83.9905 84.0652 66.771 84.0652C49.5515 84.0652 33.3523 77.4383 21.0772 65.3993ZM298.882 65.3993C286.607 77.4383 270.409 84.0652 253.188 84.0652C235.968 84.0652 219.769 77.4383 207.496 65.3993C219.769 53.3587 235.968 46.7335 253.188 46.7335C270.409 46.7335 286.607 53.3587 298.882 65.3993ZM298.882 158.599C286.607 170.639 270.409 177.265 253.188 177.265C235.968 177.265 219.769 170.639 207.496 158.599C232.83 133.759 273.55 133.759 298.882 158.599ZM205.673 158.599C180.34 183.441 139.619 183.441 114.287 158.599C139.619 133.759 180.34 133.759 205.673 158.599ZM119.89 152.092C128.599 140.604 133.316 126.665 133.316 112C133.316 97.3335 128.599 83.3954 119.89 71.9062C143.52 89.7676 176.441 89.7676 200.073 71.9062C191.362 83.3937 186.644 97.3335 186.644 112C186.644 126.665 191.362 140.604 200.069 152.092C176.441 134.231 143.52 134.231 119.89 152.092ZM187.916 112C187.916 94.7807 194.543 78.5833 206.584 66.3108C219.007 78.9758 225.221 95.4862 225.221 112C225.221 128.512 219.007 145.024 206.584 157.687C194.543 145.415 187.916 129.217 187.916 112ZM114.287 65.3993C139.619 40.5575 180.34 40.5575 205.673 65.3993C180.34 90.2396 139.619 90.2396 114.287 65.3993ZM132.043 112C132.043 129.217 125.416 145.415 113.375 157.687C88.5327 132.359 88.5327 91.6408 113.375 66.3108C125.416 78.5833 132.043 94.7807 132.043 112ZM119.868 165.091C143.507 182.972 176.452 182.972 200.092 165.091C191.151 176.91 186.675 191.054 186.675 205.199C186.675 222.039 193.016 238.876 205.685 251.789C180.35 276.645 139.611 276.645 114.275 251.789C137.589 228.027 139.453 190.977 119.868 165.091ZM113.375 250.889C88.5327 225.559 88.5327 184.842 113.375 159.51C125.798 172.175 132.012 188.686 132.012 205.199C132.012 221.713 125.798 238.224 113.375 250.889ZM206.584 159.51C231.428 184.842 231.428 225.557 206.584 250.889C181.74 225.559 181.74 184.842 206.584 159.51ZM299.344 251.349C274.041 276.648 232.969 276.793 207.484 251.789C230.792 228.033 232.662 191 213.094 165.114C224.582 173.822 238.522 178.538 253.19 178.538C270.75 178.538 287.267 171.78 299.782 159.501C324.788 184.983 324.645 226.052 299.344 251.349ZM299.782 157.7C276.019 134.388 238.966 132.524 213.078 152.108C230.956 128.476 230.961 95.5462 213.092 71.911C224.582 80.6188 238.522 85.3383 253.19 85.3383C270.75 85.3383 287.269 78.5801 299.784 66.2994C311.83 78.5736 318.462 94.7759 318.462 112C318.462 129.222 311.83 145.425 299.782 157.7ZM299.344 -27.351C312.069 -14.6276 318.431 2.08558 318.431 18.7987C318.431 35.3173 312.211 51.8326 299.782 64.4992C287.267 52.2186 270.748 45.4603 253.19 45.4603C238.522 45.4603 224.582 50.1766 213.094 58.886C232.661 32.9996 230.79 -4.03529 207.484 -27.7905C219.76 -39.8376 235.965 -46.4661 253.19 -46.4661C270.625 -46.4677 287.016 -39.6787 299.344 -27.351ZM206.584 64.4878C181.742 39.1562 181.742 -1.55872 206.584 -26.8904C231.426 -1.55872 231.428 39.1562 206.584 64.4878ZM205.684 -27.7905C193.015 -14.8773 186.675 1.96069 186.675 18.7987C186.675 32.9445 191.151 47.0886 200.092 58.9071C176.452 41.0262 143.507 41.0262 119.868 58.9071C139.453 33.0191 137.588 -4.0288 114.275 -27.7905C139.611 -52.647 180.35 -52.647 205.684 -27.7905ZM113.375 64.4878C88.531 39.1562 88.5327 -1.55872 113.375 -26.8904C125.796 -14.2237 132.012 2.28668 132.012 18.7987C132.012 35.3124 125.796 51.8228 113.375 64.4878ZM20.6165 -27.351C32.9451 -39.6787 49.3357 -46.4661 66.771 -46.4661C83.9954 -46.4661 100.199 -39.8376 112.476 -27.7905C99.8052 -14.8773 93.4657 1.96069 93.4657 18.8004C93.4657 32.9364 97.9365 47.0724 106.867 58.886C95.3783 50.1766 81.4372 45.4603 66.771 45.4603C49.2108 45.4603 32.6921 52.2186 20.1785 64.4992C-4.82753 39.0151 -4.68316 -2.05339 20.6165 -27.351ZM20.1769 66.2994C32.6921 78.5801 49.2108 85.3383 66.771 85.3383C81.4372 85.3383 95.3783 80.622 106.867 71.9127C97.9349 83.7278 93.4657 97.8623 93.4657 112C93.4657 126.146 97.9413 140.29 106.883 152.108C80.9943 132.524 43.9419 134.388 20.1785 157.7C8.12889 145.426 1.499 129.224 1.499 112C1.499 94.7759 8.12889 78.5736 20.1769 66.2994ZM20.6165 251.349C-4.68478 226.052 -4.82915 184.983 20.1769 159.499C32.6921 171.78 49.2108 178.538 66.771 178.538C81.4372 178.538 95.3767 173.822 106.865 165.112C97.9349 176.927 93.4657 191.062 93.4657 205.199C93.4657 222.039 99.8052 238.876 112.475 251.789C86.99 276.793 45.9178 276.648 20.6165 251.349Z" fill="#777777"/>
</g>
<mask id="mask1_137_60" style="mask-type:luminance" maskUnits="userSpaceOnUse" x="280" y="0" width="321" height="127">
<path d="M280.562 0L600.327 0V126.115H280.562V0Z" fill="white"/>
</mask>
<g mask="url(#mask1_137_60)">
<path d="M487.146 250.114C513.128 275.613 555.008 275.47 580.806 249.676C606.602 223.88 606.746 182.004 581.244 156.024C593.532 143.51 600.297 126.988 600.297 109.425C600.297 91.8603 593.532 75.3385 581.244 62.8243C606.746 36.8439 606.602 -5.03224 580.804 -30.8261C568.237 -43.3938 551.525 -50.3159 533.75 -50.3159C516.186 -50.3159 499.662 -43.5528 487.146 -31.2656C461.314 -56.6184 419.77 -56.6184 393.936 -31.2656C381.421 -43.5528 364.898 -50.3159 347.333 -50.3159C329.558 -50.3159 312.846 -43.3938 300.278 -30.8261C287.305 -17.8546 280.818 -0.81543 280.818 16.2237C280.818 33.0682 287.161 49.9079 299.838 62.8243C287.55 75.3385 280.787 91.8603 280.787 109.425C280.787 126.988 287.55 143.51 299.838 156.024C287.161 168.939 280.818 185.78 280.818 202.624C280.818 219.664 287.305 236.703 300.278 249.676C326.075 275.47 367.955 275.613 393.936 250.114C419.77 275.467 461.314 275.467 487.146 250.114ZM301.639 156.024C326.972 131.184 367.693 131.184 393.025 156.024C380.751 168.064 364.552 174.69 347.333 174.69C330.113 174.69 313.914 168.064 301.639 156.024ZM301.639 62.8243C313.914 50.7837 330.113 44.1584 347.333 44.1584C364.552 44.1584 380.751 50.7837 393.026 62.8243C380.751 74.8633 364.552 81.4902 347.333 81.4902C330.113 81.4902 313.914 74.8633 301.639 62.8243ZM579.443 62.8243C567.168 74.8633 550.971 81.4902 533.75 81.4902C516.53 81.4902 500.331 74.8633 488.057 62.8243C500.331 50.7837 516.53 44.1584 533.75 44.1584C550.971 44.1584 567.168 50.7837 579.443 62.8243ZM579.443 156.024C567.168 168.064 550.971 174.69 533.75 174.69C516.53 174.69 500.331 168.064 488.057 156.024C513.391 131.184 554.111 131.184 579.443 156.024ZM486.234 156.024C460.902 180.866 420.18 180.866 394.848 156.024C420.18 131.184 460.902 131.184 486.234 156.024ZM400.451 149.517C409.161 138.029 413.878 124.09 413.878 109.425C413.878 94.7585 409.161 80.8203 400.451 69.3312C424.081 87.1926 457.002 87.1926 480.634 69.3312C471.923 80.8187 467.206 94.7585 467.206 109.425C467.206 124.09 471.923 138.029 480.631 149.517C457.002 131.656 424.081 131.656 400.451 149.517ZM468.478 109.425C468.478 92.2057 475.104 76.0083 487.146 63.7358C499.568 76.4008 505.783 92.9112 505.783 109.425C505.783 125.937 499.568 142.449 487.146 155.112C475.104 142.84 468.478 126.642 468.478 109.425ZM394.848 62.8243C420.18 37.9824 460.902 37.9824 486.234 62.8243C460.902 87.6645 420.18 87.6645 394.848 62.8243ZM412.605 109.425C412.605 126.642 405.978 142.84 393.936 155.112C369.094 129.784 369.094 89.0658 393.936 63.7358C405.978 76.0083 412.605 92.2057 412.605 109.425ZM400.43 162.516C424.069 180.397 457.014 180.397 480.654 162.516C471.712 174.335 467.237 188.479 467.237 202.624C467.237 219.464 473.578 236.301 486.247 249.214C460.912 274.07 420.172 274.07 394.837 249.214C418.151 225.452 420.015 188.402 400.43 162.516ZM393.936 248.314C369.094 222.984 369.094 182.267 393.936 156.935C406.359 169.6 412.574 186.111 412.574 202.624C412.574 219.138 406.359 235.649 393.936 248.314ZM487.146 156.935C511.99 182.267 511.99 222.982 487.146 248.314C462.302 222.984 462.302 182.267 487.146 156.935ZM579.906 248.774C554.603 274.073 513.531 274.218 488.046 249.214C511.354 225.458 513.224 188.425 493.656 162.539C505.144 171.247 519.083 175.963 533.751 175.963C551.311 175.963 567.828 169.205 580.344 156.926C605.35 182.408 605.207 223.477 579.906 248.774ZM580.344 155.125C556.58 131.813 519.528 129.949 493.639 149.533C511.517 125.901 511.522 92.9712 493.654 69.336C505.144 78.0437 519.083 82.7633 533.751 82.7633C551.311 82.7633 567.83 76.0051 580.345 63.7244C592.392 75.9986 599.023 92.2009 599.023 109.425C599.023 126.647 592.392 142.85 580.344 155.125ZM579.906 -29.926C592.63 -17.2026 598.992 -0.489438 598.992 16.2237C598.992 32.7423 592.773 49.2575 580.344 61.9242C567.828 49.6435 551.31 42.8853 533.751 42.8853C519.083 42.8853 505.144 47.6016 493.656 56.311C513.222 30.4246 511.352 -6.6103 488.046 -30.3655C500.321 -42.4126 516.527 -49.0411 533.751 -49.0411C551.186 -49.0427 567.577 -42.2537 579.906 -29.926ZM487.146 61.9128C462.303 36.5812 462.303 -4.13373 487.146 -29.4654C511.988 -4.13373 511.99 36.5812 487.146 61.9128ZM486.245 -30.3655C473.576 -17.4524 467.237 -0.614321 467.237 16.2237C467.237 30.3695 471.712 44.5136 480.654 56.332C457.014 38.4512 424.069 38.4512 400.43 56.332C420.015 30.4441 418.149 -6.60381 394.837 -30.3655C420.172 -55.222 460.912 -55.222 486.245 -30.3655ZM393.936 61.9128C369.093 36.5812 369.094 -4.13373 393.936 -29.4654C406.357 -16.7988 412.574 -0.288329 412.574 16.2237C412.574 32.7374 406.357 49.2478 393.936 61.9128ZM301.178 -29.926C313.507 -42.2537 329.897 -49.0411 347.333 -49.0411C364.557 -49.0411 380.761 -42.4126 393.038 -30.3655C380.367 -17.4524 374.027 -0.614321 374.027 16.2253C374.027 30.3614 378.498 44.4974 387.428 56.311C375.94 47.6016 361.999 42.8853 347.333 42.8853C329.772 42.8853 313.254 49.6435 300.74 61.9242C275.734 36.4401 275.878 -4.6284 301.178 -29.926ZM300.738 63.7244C313.254 76.0051 329.772 82.7633 347.333 82.7633C361.999 82.7633 375.94 78.047 387.428 69.3377C378.496 81.1528 374.027 95.2872 374.027 109.425C374.027 123.571 378.503 137.715 387.444 149.533C361.556 129.949 324.503 131.813 300.74 155.125C288.69 142.851 282.061 126.649 282.061 109.425C282.061 92.2009 288.69 75.9986 300.738 63.7244ZM301.178 248.774C275.877 223.477 275.732 182.408 300.738 156.924C313.254 169.205 329.772 175.963 347.333 175.963C361.999 175.963 375.938 171.247 387.427 162.537C378.496 174.352 374.027 188.487 374.027 202.624C374.027 219.464 380.367 236.301 393.036 249.214C367.551 274.218 326.479 274.073 301.178 248.774Z" fill="#777777"/>
</g>
<mask id="mask2_137_60" style="mask-type:luminance" maskUnits="userSpaceOnUse" x="560" y="2" width="320" height="127">
<path d="M560.117 2.5755L879.883 2.5755V128.69H560.117V2.5755Z" fill="white"/>
</mask>
<g mask="url(#mask2_137_60)">
<path d="M766.701 252.689C792.684 278.188 834.564 278.045 860.362 252.251C886.158 226.455 886.302 184.579 860.8 158.599C873.088 146.085 879.852 129.563 879.852 112C879.852 94.4353 873.088 77.9135 860.8 65.3993C886.302 39.4189 886.158 -2.45723 860.36 -28.2511C847.793 -40.8188 831.081 -47.7409 813.305 -47.7409C795.742 -47.7409 779.218 -40.9778 766.701 -28.6906C740.87 -54.0434 699.325 -54.0434 673.492 -28.6906C660.977 -40.9778 644.453 -47.7409 626.888 -47.7409C609.114 -47.7409 592.402 -40.8188 579.833 -28.2511C566.861 -15.2796 560.374 1.75958 560.374 18.7987C560.374 35.6433 566.716 52.4829 579.394 65.3993C567.106 77.9135 560.343 94.4353 560.343 112C560.343 129.563 567.106 146.085 579.394 158.599C566.716 171.514 560.374 188.355 560.374 205.199C560.374 222.239 566.861 239.278 579.833 252.251C605.631 278.045 647.511 278.188 673.492 252.689C699.325 278.042 740.87 278.042 766.701 252.689ZM581.194 158.599C606.528 133.759 647.248 133.759 672.58 158.599C660.307 170.639 644.108 177.265 626.888 177.265C609.669 177.265 593.469 170.639 581.194 158.599ZM581.194 65.3993C593.469 53.3587 609.669 46.7335 626.888 46.7335C644.108 46.7335 660.307 53.3587 672.582 65.3993C660.307 77.4383 644.108 84.0652 626.888 84.0652C609.669 84.0652 593.469 77.4383 581.194 65.3993ZM858.999 65.3993C846.724 77.4383 830.526 84.0652 813.305 84.0652C796.086 84.0652 779.887 77.4383 767.613 65.3993C779.887 53.3587 796.086 46.7335 813.305 46.7335C830.526 46.7335 846.724 53.3587 858.999 65.3993ZM858.999 158.599C846.724 170.639 830.526 177.265 813.305 177.265C796.086 177.265 779.887 170.639 767.613 158.599C792.947 133.759 833.667 133.759 858.999 158.599ZM765.79 158.599C740.458 183.441 699.736 183.441 674.404 158.599C699.736 133.759 740.458 133.759 765.79 158.599ZM680.007 152.092C688.716 140.604 693.434 126.665 693.434 112C693.434 97.3335 688.716 83.3954 680.007 71.9062C703.637 89.7676 736.558 89.7676 760.19 71.9062C751.479 83.3937 746.761 97.3335 746.761 112C746.761 126.665 751.479 140.604 760.187 152.092C736.558 134.231 703.637 134.231 680.007 152.092ZM748.033 112C748.033 94.7807 754.66 78.5833 766.701 66.3108C779.124 78.9758 785.339 95.4862 785.339 112C785.339 128.512 779.124 145.024 766.701 157.687C754.66 145.415 748.033 129.217 748.033 112ZM674.404 65.3993C699.736 40.5575 740.458 40.5575 765.79 65.3993C740.458 90.2396 699.736 90.2396 674.404 65.3993ZM692.16 112C692.16 129.217 685.534 145.415 673.492 157.687C648.65 132.359 648.65 91.6408 673.492 66.3108C685.534 78.5833 692.16 94.7807 692.16 112ZM679.986 165.091C703.624 182.972 736.569 182.972 760.209 165.091C751.268 176.91 746.792 191.054 746.792 205.199C746.792 222.039 753.133 238.876 765.803 251.789C740.467 276.645 699.728 276.645 674.392 251.789C697.706 228.027 699.57 190.977 679.986 165.091ZM673.492 250.889C648.65 225.559 648.65 184.842 673.492 159.51C685.915 172.175 692.129 188.686 692.129 205.199C692.129 221.713 685.915 238.224 673.492 250.889ZM766.701 159.51C791.545 184.842 791.545 225.557 766.701 250.889C741.858 225.559 741.858 184.842 766.701 159.51ZM859.461 251.349C834.158 276.648 793.086 276.793 767.602 251.789C790.909 228.033 792.78 191 773.211 165.114C784.7 173.822 798.639 178.538 813.307 178.538C830.867 178.538 847.384 171.78 859.899 159.501C884.905 184.983 884.763 226.052 859.461 251.349ZM859.899 157.7C836.136 134.388 799.083 132.524 773.195 152.108C791.073 128.476 791.078 95.5462 773.21 71.911C784.7 80.6188 798.639 85.3383 813.307 85.3383C830.867 85.3383 847.386 78.5801 859.901 66.2994C871.947 78.5736 878.579 94.7759 878.579 112C878.579 129.222 871.947 145.425 859.899 157.7ZM859.461 -27.351C872.186 -14.6276 878.548 2.08558 878.548 18.7987C878.548 35.3173 872.329 51.8326 859.899 64.4992C847.384 52.2186 830.865 45.4603 813.307 45.4603C798.639 45.4603 784.7 50.1766 773.211 58.886C792.778 32.9996 790.908 -4.03529 767.602 -27.7905C779.877 -39.8376 796.082 -46.4661 813.307 -46.4661C830.742 -46.4677 847.133 -39.6787 859.461 -27.351ZM766.701 64.4878C741.859 39.1562 741.859 -1.55872 766.701 -26.8904C791.544 -1.55872 791.545 39.1562 766.701 64.4878ZM765.801 -27.7905C753.132 -14.8773 746.792 1.96069 746.792 18.7987C746.792 32.9445 751.268 47.0886 760.209 58.9071C736.569 41.0262 703.624 41.0262 679.986 58.9071C699.57 33.0191 697.705 -4.0288 674.392 -27.7905C699.728 -52.647 740.467 -52.647 765.801 -27.7905ZM673.492 64.4878C648.648 39.1562 648.65 -1.55872 673.492 -26.8904C685.913 -14.2237 692.129 2.28668 692.129 18.7987C692.129 35.3124 685.913 51.8228 673.492 64.4878ZM580.734 -27.351C593.062 -39.6787 609.453 -46.4661 626.888 -46.4661C644.113 -46.4661 660.317 -39.8376 672.593 -27.7905C659.922 -14.8773 653.583 1.96069 653.583 18.8004C653.583 32.9364 658.054 47.0724 666.984 58.886C655.495 50.1766 641.554 45.4603 626.888 45.4603C609.328 45.4603 592.809 52.2186 580.296 64.4992C555.29 39.0151 555.434 -2.05339 580.734 -27.351ZM580.294 66.2994C592.809 78.5801 609.328 85.3383 626.888 85.3383C641.554 85.3383 655.495 80.622 666.984 71.9127C658.052 83.7278 653.583 97.8623 653.583 112C653.583 126.146 658.059 140.29 667 152.108C641.112 132.524 604.059 134.388 580.296 157.7C568.246 145.426 561.616 129.224 561.616 112C561.616 94.7759 568.246 78.5736 580.294 66.2994ZM580.734 251.349C555.432 226.052 555.288 184.983 580.294 159.499C592.809 171.78 609.328 178.538 626.888 178.538C641.554 178.538 655.494 173.822 666.982 165.112C658.052 176.927 653.583 191.062 653.583 205.199C653.583 222.039 659.922 238.876 672.592 251.789C647.107 276.793 606.035 276.648 580.734 251.349Z" fill="#777777"/>
</g>
<mask id="mask3_137_60" style="mask-type:luminance" maskUnits="userSpaceOnUse" x="840" y="0" width="321" height="127">
<path d="M840.679 0L1160.44 0V126.115H840.679V0Z" fill="white"/>
</mask>
<g mask="url(#mask3_137_60)">
<path d="M1047.26 250.114C1073.25 275.613 1115.13 275.47 1140.92 249.676C1166.72 223.88 1166.86 182.004 1141.36 156.024C1153.65 143.51 1160.41 126.988 1160.41 109.425C1160.41 91.8603 1153.65 75.3385 1141.36 62.8243C1166.86 36.8439 1166.72 -5.03224 1140.92 -30.8261C1128.35 -43.3938 1111.64 -50.3159 1093.87 -50.3159C1076.3 -50.3159 1059.78 -43.5528 1047.26 -31.2656C1021.43 -56.6184 979.887 -56.6184 954.054 -31.2656C941.538 -43.5528 925.015 -50.3159 907.45 -50.3159C889.675 -50.3159 872.964 -43.3938 860.395 -30.8261C847.422 -17.8546 840.935 -0.81543 840.935 16.2237C840.935 33.0682 847.278 49.9079 859.955 62.8243C847.667 75.3385 840.904 91.8603 840.904 109.425C840.904 126.988 847.667 143.51 859.955 156.024C847.278 168.939 840.935 185.78 840.935 202.624C840.935 219.664 847.422 236.703 860.395 249.676C886.193 275.47 928.073 275.613 954.054 250.114C979.887 275.467 1021.43 275.467 1047.26 250.114ZM861.756 156.024C887.09 131.184 927.81 131.184 953.142 156.024C940.868 168.064 924.669 174.69 907.45 174.69C890.23 174.69 874.031 168.064 861.756 156.024ZM861.756 62.8243C874.031 50.7837 890.23 44.1584 907.45 44.1584C924.669 44.1584 940.868 50.7837 953.144 62.8243C940.868 74.8633 924.669 81.4902 907.45 81.4902C890.23 81.4902 874.031 74.8633 861.756 62.8243ZM1139.56 62.8243C1127.29 74.8633 1111.09 81.4902 1093.87 81.4902C1076.65 81.4902 1060.45 74.8633 1048.17 62.8243C1060.45 50.7837 1076.65 44.1584 1093.87 44.1584C1111.09 44.1584 1127.29 50.7837 1139.56 62.8243ZM1139.56 156.024C1127.29 168.064 1111.09 174.69 1093.87 174.69C1076.65 174.69 1060.45 168.064 1048.17 156.024C1073.51 131.184 1114.23 131.184 1139.56 156.024ZM1046.35 156.024C1021.02 180.866 980.297 180.866 954.965 156.024C980.297 131.184 1021.02 131.184 1046.35 156.024ZM960.568 149.517C969.278 138.029 973.995 124.09 973.995 109.425C973.995 94.7585 969.278 80.8203 960.568 69.3312C984.199 87.1926 1017.12 87.1926 1040.75 69.3312C1032.04 80.8187 1027.32 94.7585 1027.32 109.425C1027.32 124.09 1032.04 138.029 1040.75 149.517C1017.12 131.656 984.199 131.656 960.568 149.517ZM1028.59 109.425C1028.59 92.2057 1035.22 76.0083 1047.26 63.7358C1059.69 76.4008 1065.9 92.9112 1065.9 109.425C1065.9 125.937 1059.69 142.449 1047.26 155.112C1035.22 142.84 1028.59 126.642 1028.59 109.425ZM954.965 62.8243C980.297 37.9824 1021.02 37.9824 1046.35 62.8243C1021.02 87.6646 980.297 87.6646 954.965 62.8243ZM972.722 109.425C972.722 126.642 966.095 142.84 954.054 155.112C929.211 129.784 929.211 89.0658 954.054 63.7358C966.095 76.0083 972.722 92.2057 972.722 109.425ZM960.547 162.516C984.186 180.397 1017.13 180.397 1040.77 162.516C1031.83 174.335 1027.35 188.479 1027.35 202.624C1027.35 219.464 1033.69 236.301 1046.36 249.214C1021.03 274.07 980.289 274.07 954.954 249.214C978.268 225.452 980.132 188.402 960.547 162.516ZM954.054 248.314C929.211 222.984 929.211 182.267 954.054 156.935C966.476 169.6 972.691 186.111 972.691 202.624C972.691 219.138 966.476 235.649 954.054 248.314ZM1047.26 156.935C1072.11 182.267 1072.11 222.982 1047.26 248.314C1022.42 222.984 1022.42 182.267 1047.26 156.935ZM1140.02 248.774C1114.72 274.073 1073.65 274.218 1048.16 249.214C1071.47 225.458 1073.34 188.425 1053.77 162.539C1065.26 171.247 1079.2 175.963 1093.87 175.963C1111.43 175.963 1127.95 169.205 1140.46 156.926C1165.47 182.408 1165.32 223.477 1140.02 248.774ZM1140.46 155.125C1116.7 131.813 1079.65 129.949 1053.76 149.533C1071.63 125.901 1071.64 92.9712 1053.77 69.336C1065.26 78.0437 1079.2 82.7633 1093.87 82.7633C1111.43 82.7633 1127.95 76.0051 1140.46 63.7244C1152.51 75.9986 1159.14 92.2009 1159.14 109.425C1159.14 126.647 1152.51 142.85 1140.46 155.125ZM1140.02 -29.926C1152.75 -17.2026 1159.11 -0.489437 1159.11 16.2237C1159.11 32.7422 1152.89 49.2575 1140.46 61.9242C1127.95 49.6435 1111.43 42.8853 1093.87 42.8853C1079.2 42.8853 1065.26 47.6016 1053.77 56.311C1073.34 30.4246 1071.47 -6.6103 1048.16 -30.3655C1060.44 -42.4126 1076.64 -49.0411 1093.87 -49.0411C1111.3 -49.0427 1127.69 -42.2537 1140.02 -29.926ZM1047.26 61.9128C1022.42 36.5812 1022.42 -4.13373 1047.26 -29.4654C1072.11 -4.13373 1072.11 36.5812 1047.26 61.9128ZM1046.36 -30.3655C1033.69 -17.4524 1027.35 -0.614319 1027.35 16.2237C1027.35 30.3695 1031.83 44.5136 1040.77 56.332C1017.13 38.4512 984.186 38.4512 960.547 56.332C980.132 30.4441 978.266 -6.60381 954.954 -30.3655C980.289 -55.222 1021.03 -55.222 1046.36 -30.3655ZM954.054 61.9128C929.21 36.5812 929.211 -4.13373 954.054 -29.4654C966.475 -16.7988 972.691 -0.28833 972.691 16.2237C972.691 32.7374 966.475 49.2478 954.054 61.9128ZM861.295 -29.926C873.624 -42.2537 890.014 -49.0411 907.45 -49.0411C924.674 -49.0411 940.878 -42.4126 953.155 -30.3655C940.484 -17.4524 934.144 -0.614319 934.144 16.2253C934.144 30.3614 938.615 44.4974 947.545 56.311C936.057 47.6016 922.116 42.8853 907.45 42.8853C889.89 42.8853 873.371 49.6435 860.857 61.9242C835.851 36.4401 835.996 -4.6284 861.295 -29.926ZM860.856 63.7244C873.371 76.0051 889.89 82.7633 907.45 82.7633C922.116 82.7633 936.057 78.047 947.545 69.3377C938.614 81.1528 934.144 95.2872 934.144 109.425C934.144 123.571 938.62 137.715 947.562 149.533C921.673 129.949 884.621 131.813 860.857 155.125C848.808 142.851 842.178 126.649 842.178 109.425C842.178 92.2009 848.808 75.9986 860.856 63.7244ZM861.295 248.774C835.994 223.477 835.85 182.408 860.856 156.924C873.371 169.205 889.89 175.963 907.45 175.963C922.116 175.963 936.055 171.247 947.544 162.537C938.614 174.352 934.144 188.487 934.144 202.624C934.144 219.464 940.484 236.301 953.153 249.214C927.669 274.218 886.596 274.073 861.295 248.774Z" fill="#777777"/>
</g>
<mask id="mask4_137_60" style="mask-type:luminance" maskUnits="userSpaceOnUse" x="1120" y="0" width="320" height="127">
<path d="M1120.23 0L1440 0V126.115H1120.23V0Z" fill="white"/>
</mask>
<g mask="url(#mask4_137_60)">
<path d="M1326.82 250.114C1352.8 275.613 1394.68 275.47 1420.48 249.676C1446.27 223.88 1446.42 182.004 1420.92 156.024C1433.2 143.51 1439.97 126.988 1439.97 109.425C1439.97 91.8603 1433.2 75.3385 1420.92 62.8243C1446.42 36.8439 1446.27 -5.03224 1420.48 -30.8261C1407.91 -43.3938 1391.2 -50.3159 1373.42 -50.3159C1355.86 -50.3159 1339.34 -43.5528 1326.82 -31.2656C1300.99 -56.6184 1259.44 -56.6184 1233.61 -31.2656C1221.09 -43.5528 1204.57 -50.3159 1187.01 -50.3159C1169.23 -50.3159 1152.52 -43.3938 1139.95 -30.8261C1126.98 -17.8546 1120.49 -0.81543 1120.49 16.2237C1120.49 33.0682 1126.83 49.9079 1139.51 62.8243C1127.22 75.3385 1120.46 91.8603 1120.46 109.425C1120.46 126.988 1127.22 143.51 1139.51 156.024C1126.83 168.939 1120.49 185.78 1120.49 202.624C1120.49 219.664 1126.98 236.703 1139.95 249.676C1165.75 275.47 1207.63 275.613 1233.61 250.114C1259.44 275.467 1300.99 275.467 1326.82 250.114ZM1141.31 156.024C1166.65 131.184 1207.37 131.184 1232.7 156.024C1220.42 168.064 1204.22 174.69 1187.01 174.69C1169.79 174.69 1153.59 168.064 1141.31 156.024ZM1141.31 62.8243C1153.59 50.7837 1169.79 44.1584 1187.01 44.1584C1204.22 44.1584 1220.42 50.7837 1232.7 62.8243C1220.42 74.8633 1204.22 81.4902 1187.01 81.4902C1169.79 81.4902 1153.59 74.8633 1141.31 62.8243ZM1419.12 62.8243C1406.84 74.8633 1390.64 81.4902 1373.42 81.4902C1356.2 81.4902 1340 74.8633 1327.73 62.8243C1340 50.7837 1356.2 44.1584 1373.42 44.1584C1390.64 44.1584 1406.84 50.7837 1419.12 62.8243ZM1419.12 156.024C1406.84 168.064 1390.64 174.69 1373.42 174.69C1356.2 174.69 1340 168.064 1327.73 156.024C1353.06 131.184 1393.78 131.184 1419.12 156.024ZM1325.91 156.024C1300.57 180.866 1259.85 180.866 1234.52 156.024C1259.85 131.184 1300.57 131.184 1325.91 156.024ZM1240.12 149.517C1248.83 138.029 1253.55 124.09 1253.55 109.425C1253.55 94.7585 1248.83 80.8203 1240.12 69.3312C1263.75 87.1926 1296.68 87.1926 1320.31 69.3312C1311.6 80.8187 1306.88 94.7585 1306.88 109.425C1306.88 124.09 1311.6 138.029 1320.3 149.517C1296.68 131.656 1263.75 131.656 1240.12 149.517ZM1308.15 109.425C1308.15 92.2057 1314.78 76.0083 1326.82 63.7358C1339.24 76.4008 1345.46 92.9112 1345.46 109.425C1345.46 125.937 1339.24 142.449 1326.82 155.112C1314.78 142.84 1308.15 126.642 1308.15 109.425ZM1234.52 62.8243C1259.85 37.9824 1300.57 37.9824 1325.91 62.8243C1300.57 87.6646 1259.85 87.6646 1234.52 62.8243ZM1252.28 109.425C1252.28 126.642 1245.65 142.84 1233.61 155.112C1208.77 129.784 1208.77 89.0658 1233.61 63.7358C1245.65 76.0083 1252.28 92.2057 1252.28 109.425ZM1240.1 162.516C1263.74 180.397 1296.69 180.397 1320.33 162.516C1311.39 174.335 1306.91 188.479 1306.91 202.624C1306.91 219.464 1313.25 236.301 1325.92 249.214C1300.58 274.07 1259.84 274.07 1234.51 249.214C1257.82 225.452 1259.69 188.402 1240.1 162.516ZM1233.61 248.314C1208.77 222.984 1208.77 182.267 1233.61 156.935C1246.03 169.6 1252.25 186.111 1252.25 202.624C1252.25 219.138 1246.03 235.649 1233.61 248.314ZM1326.82 156.935C1351.66 182.267 1351.66 222.982 1326.82 248.314C1301.97 222.984 1301.97 182.267 1326.82 156.935ZM1419.58 248.774C1394.28 274.073 1353.2 274.218 1327.72 249.214C1351.03 225.458 1352.9 188.425 1333.33 162.539C1344.82 171.247 1358.76 175.963 1373.42 175.963C1390.98 175.963 1407.5 169.205 1420.02 156.926C1445.02 182.408 1444.88 223.477 1419.58 248.774ZM1420.02 155.125C1396.25 131.813 1359.2 129.949 1333.31 149.533C1351.19 125.901 1351.2 92.9712 1333.33 69.336C1344.82 78.0437 1358.76 82.7633 1373.42 82.7633C1390.98 82.7633 1407.5 76.0051 1420.02 63.7244C1432.06 75.9986 1438.7 92.2009 1438.7 109.425C1438.7 126.647 1432.06 142.85 1420.02 155.125ZM1419.58 -29.926C1432.3 -17.2026 1438.67 -0.489437 1438.67 16.2237C1438.67 32.7422 1432.45 49.2575 1420.02 61.9242C1407.5 49.6435 1390.98 42.8853 1373.42 42.8853C1358.76 42.8853 1344.82 47.6016 1333.33 56.311C1352.9 30.4246 1351.02 -6.6103 1327.72 -30.3655C1339.99 -42.4126 1356.2 -49.0411 1373.42 -49.0411C1390.86 -49.0427 1407.25 -42.2537 1419.58 -29.926ZM1326.82 61.9128C1301.98 36.5812 1301.98 -4.13373 1326.82 -29.4654C1351.66 -4.13373 1351.66 36.5812 1326.82 61.9128ZM1325.92 -30.3655C1313.25 -17.4524 1306.91 -0.614319 1306.91 16.2237C1306.91 30.3695 1311.39 44.5136 1320.33 56.332C1296.69 38.4512 1263.74 38.4512 1240.1 56.332C1259.69 30.4441 1257.82 -6.60381 1234.51 -30.3655C1259.84 -55.222 1300.58 -55.222 1325.92 -30.3655ZM1233.61 61.9128C1208.77 36.5812 1208.77 -4.13373 1233.61 -29.4654C1246.03 -16.7988 1252.25 -0.28833 1252.25 16.2237C1252.25 32.7374 1246.03 49.2478 1233.61 61.9128ZM1140.85 -29.926C1153.18 -42.2537 1169.57 -49.0411 1187.01 -49.0411C1204.23 -49.0411 1220.43 -42.4126 1232.71 -30.3655C1220.04 -17.4524 1213.7 -0.614319 1213.7 16.2253C1213.7 30.3614 1218.17 44.4974 1227.1 56.311C1215.61 47.6016 1201.67 42.8853 1187.01 42.8853C1169.45 42.8853 1152.93 49.6435 1140.41 61.9242C1115.41 36.4401 1115.55 -4.6284 1140.85 -29.926ZM1140.41 63.7244C1152.93 76.0051 1169.45 82.7633 1187.01 82.7633C1201.67 82.7633 1215.61 78.047 1227.1 69.3377C1218.17 81.1528 1213.7 95.2872 1213.7 109.425C1213.7 123.571 1218.18 137.715 1227.12 149.533C1201.23 129.949 1164.18 131.813 1140.41 155.125C1128.36 142.851 1121.73 126.649 1121.73 109.425C1121.73 92.2009 1128.36 75.9986 1140.41 63.7244ZM1140.85 248.774C1115.55 223.477 1115.41 182.408 1140.41 156.924C1152.93 169.205 1169.45 175.963 1187.01 175.963C1201.67 175.963 1215.61 171.247 1227.1 162.537C1218.17 174.352 1213.7 188.487 1213.7 202.624C1213.7 219.464 1220.04 236.301 1232.71 249.214C1207.22 274.218 1166.15 274.073 1140.85 248.774Z" fill="#777777"/>
</g>
</svg>
