<svg width="15" height="14" viewBox="0 0 15 14" fill="none" xmlns="http://www.w3.org/2000/svg">
<path d="M14.1955 1.01741C14.0176 0.869382 13.8028 0.772376 13.5741 0.736717C13.3454 0.701058 13.1113 0.728081 12.8968 0.814909L1.69616 5.33678C1.45669 5.43534 1.25285 5.60439 1.11169 5.82148C0.970518 6.03858 0.898696 6.29346 0.905747 6.55232C0.912798 6.81118 0.99839 7.06178 1.15117 7.27087C1.30394 7.47996 1.51668 7.63765 1.76116 7.72303L4.02678 8.51116L5.28928 12.6874C5.30659 12.7431 5.33162 12.7961 5.36366 12.8449C5.36866 12.8524 5.37553 12.8574 5.38053 12.8655C5.41736 12.9168 5.46184 12.9621 5.51241 12.9999C5.52652 13.011 5.54112 13.0214 5.55616 13.0312C5.61536 13.0704 5.68091 13.0992 5.74991 13.1162L5.75803 13.1168L5.76178 13.1187C5.80355 13.127 5.84606 13.1312 5.88866 13.1312L5.89991 13.1293C5.96392 13.1282 6.02738 13.1173 6.08803 13.0968C6.10241 13.0918 6.11428 13.0843 6.12803 13.078C6.17341 13.0594 6.21641 13.0355 6.25616 13.0068C6.28781 12.9799 6.31948 12.953 6.35116 12.9262L8.03991 11.0618L10.5587 13.013C10.7804 13.1857 11.0533 13.2796 11.3343 13.2799C11.6288 13.2796 11.9143 13.178 12.1428 12.9921C12.3713 12.8063 12.5289 12.5476 12.5893 12.2593L14.6287 2.24866C14.6748 2.02344 14.6589 1.78993 14.5826 1.57307C14.5063 1.3562 14.3725 1.16414 14.1955 1.01741ZM6.13616 8.70991C6.0496 8.7963 5.99046 8.90631 5.96616 9.02616L5.77241 9.96616L5.28241 8.34553L7.82303 7.02241L6.13616 8.70991ZM11.3249 12.0249L8.34803 9.71866C8.22347 9.62254 8.06727 9.57688 7.91055 9.59078C7.75383 9.60468 7.60811 9.67712 7.50241 9.79366L6.96116 10.3905L7.15241 9.46116L11.5793 5.03428C11.6843 4.92861 11.7481 4.78888 11.7593 4.6403C11.7704 4.49171 11.728 4.34405 11.6399 4.22393C11.5517 4.1038 11.4236 4.01912 11.2785 3.98515C11.1334 3.95118 10.981 3.97016 10.8487 4.03866L4.49553 7.34616L2.16741 6.49428L13.4043 1.99991L11.3249 12.0249Z" fill="#FAFAFA"/>
</svg>
