<svg width="15" height="24" viewBox="0 0 15 24" fill="none" xmlns="http://www.w3.org/2000/svg">
<path d="M14.4707 2.59116C12.4413 3.6955 11.0746 5.71344 10.8044 8.00416L10.234 12.8382C10.2355 12.8379 10.2368 12.8377 10.2381 12.8374C10.8512 12.6997 11.4602 13.0838 11.5981 13.6956C11.7361 14.3075 11.351 14.9149 10.7379 15.0526L10.1403 15.1869C10.073 15.0492 10.0018 14.9125 9.92364 14.7785C8.79989 12.8514 8.24552 10.6463 8.32446 8.41825L8.5064 3.27959C8.53772 2.4012 8.22844 1.5448 7.64353 0.887939C7.05837 1.5448 6.74935 2.4012 6.7804 3.27959L6.96235 8.41825C7.04128 10.6463 6.48692 12.8514 5.36317 14.7785C5.28501 14.9125 5.21383 15.0492 5.14654 15.1869L4.54895 15.0526C3.93583 14.9149 3.55072 14.3075 3.68893 13.6956C3.82687 13.0838 4.43559 12.6997 5.04871 12.8374C5.05001 12.8377 5.05156 12.8379 5.05285 12.8382L4.48244 8.00416C4.21224 5.71344 2.84573 3.6955 0.816406 2.59116V19.0543H4.61883C4.88463 20.4883 5.65148 21.8297 6.86736 22.7985C7.18829 22.9959 7.45486 23.27 7.64353 23.5959C7.83195 23.27 8.09852 22.9959 8.41944 22.7985C9.63533 21.8297 10.4022 20.4883 10.668 19.0543H14.4707V2.59116ZM11.4868 11.9047L11.9351 8.13227C12.0746 6.95624 12.5612 5.84828 13.3327 4.94865V13.3773H12.6908C12.5301 12.7569 12.109 12.208 11.4868 11.9047ZM9.63481 17.9189H8.2124C8.2124 17.255 8.67359 16.68 9.32243 16.5342L9.43605 16.5086C9.56907 16.9709 9.63481 17.4458 9.63481 17.9189ZM5.85076 16.5086L5.96438 16.5342C6.61347 16.68 7.07441 17.255 7.07441 17.9189H5.65226C5.652 17.4458 5.71773 16.9709 5.85076 16.5086ZM7.64353 12.2686C7.94065 13.347 8.37648 14.3825 8.94017 15.3494C8.9588 15.3813 8.97588 15.4139 8.99374 15.446C8.44791 15.5867 7.98024 15.8973 7.64353 16.3135C7.30656 15.8973 6.8389 15.5867 6.29307 15.446C6.31092 15.4139 6.32826 15.3813 6.3469 15.3494C6.91059 14.3825 7.34642 13.347 7.64353 12.2686ZM3.35196 8.13227L3.79996 11.9047C3.17778 12.208 2.7567 12.7569 2.59598 13.3773H1.95413V4.94865C2.72564 5.84828 3.2122 6.95624 3.35196 8.13227ZM1.95413 14.5127H2.59494C2.63273 14.6579 2.68553 14.8015 2.75411 14.9415C3.05718 15.5609 3.62552 16.0091 4.2992 16.1603L4.73995 16.2594C4.58881 16.8052 4.51479 17.3632 4.51505 17.9189H1.95413V14.5127ZM5.78114 19.0543H7.07441V21.4527C6.41652 20.7671 5.98198 19.9345 5.78114 19.0543ZM8.2124 21.4527V19.0543H9.50592C9.30509 19.9345 8.87055 20.7671 8.2124 21.4527ZM10.7718 17.9189C10.7723 17.3632 10.698 16.8052 10.5471 16.2594L10.9876 16.1603C11.6613 16.0091 12.2299 15.5609 12.533 14.9415C12.6015 14.8015 12.6541 14.6579 12.6919 14.5127H13.3327V17.9189H10.7718Z" fill="#202020"/>
</svg>
